M48
; DRILL file {KiCad 8.0.5} date 2024-09-29T15:37:15+0530
; FORMAT={-:-/ absolute / metric / decimal}
; #@! TF.CreationDate,2024-09-29T15:37:15+05:30
; #@! TF.GenerationSoftware,Kicad,Pcbnew,8.0.5
; #@! TF.FileFunction,Plated,1,2,PTH
FMAT,2
METRIC
; #@! TA.AperFunction,Plated,PTH,ViaDrill
T1C0.300
; #@! TA.AperFunction,Plated,PTH,ComponentDrill
T2C0.400
; #@! TA.AperFunction,Plated,PTH,ComponentDrill
T3C0.714
; #@! TA.AperFunction,Plated,PTH,ComponentDrill
T4C0.800
; #@! TA.AperFunction,Plated,PTH,ComponentDrill
T5C1.000
; #@! TA.AperFunction,Plated,PTH,ComponentDrill
T6C1.300
; #@! TA.AperFunction,Plated,PTH,ComponentDrill
T7C2.200
%
G90
G05
T1
X196.5Y-80.0
T2
X181.7Y-86.167
X181.717Y-53.533
X182.183Y-85.0
X182.183Y-87.333
X182.2Y-52.367
X182.2Y-54.7
X183.35Y-84.517
X183.35Y-87.817
X183.367Y-51.883
X183.367Y-55.183
X184.517Y-85.0
X184.517Y-87.333
X184.533Y-52.367
X184.533Y-54.7
X185.0Y-86.167
X185.017Y-53.533
X214.683Y-85.767
X214.7Y-53.6
X215.167Y-84.6
X215.167Y-86.933
X215.183Y-52.433
X215.183Y-54.767
X216.333Y-84.117
X216.333Y-87.417
X216.35Y-51.95
X216.35Y-55.25
X217.5Y-84.6
X217.5Y-86.933
X217.517Y-52.433
X217.517Y-54.767
X217.983Y-85.767
X218.0Y-53.6
T3
X184.46Y-60.46
X184.46Y-65.54
X184.46Y-68.46
X184.46Y-73.54
X184.46Y-76.46
X184.46Y-81.54
X187.0Y-63.0
X187.0Y-71.0
X187.0Y-79.0
T4
X194.1Y-84.295
X194.1Y-86.795
X199.98Y-67.5
X199.98Y-75.12
X202.52Y-67.5
X202.52Y-75.12
X205.06Y-67.5
X205.06Y-75.12
X207.6Y-67.5
X207.6Y-75.12
T5
X189.135Y-53.2
X191.675Y-53.2
X192.335Y-62.8
X194.3Y-69.76
X194.3Y-72.3
X194.875Y-62.8
X198.26Y-52.9
X200.26Y-62.7
X200.8Y-52.9
X202.8Y-62.7
X206.86Y-52.8
X207.1Y-62.5
X209.4Y-52.8
X209.64Y-62.5
T6
X204.42Y-87.0
X209.5Y-87.0
T7
X183.35Y-86.167
X183.367Y-53.533
X216.333Y-85.767
X216.35Y-53.6
M30
