%TF.GenerationSoftware,KiCad,Pcbnew,8.0.5*%
%TF.CreationDate,2024-09-29T15:37:39+05:30*%
%TF.ProjectId,waveform_generator,77617665-666f-4726-9d5f-67656e657261,rev?*%
%TF.SameCoordinates,Original*%
%TF.FileFunction,Legend,Top*%
%TF.FilePolarity,Positive*%
%FSLAX46Y46*%
G04 Gerber Fmt 4.6, Leading zero omitted, Abs format (unit mm)*
G04 Created by KiCad (PCBNEW 8.0.5) date 2024-09-29 15:37:39*
%MOMM*%
%LPD*%
G01*
G04 APERTURE LIST*
%ADD10C,0.120000*%
%ADD11C,0.127000*%
%ADD12C,0.200000*%
G04 APERTURE END LIST*
D10*
%TO.C,C5*%
X211090000Y-58784420D02*
X211090000Y-59065580D01*
X212110000Y-58784420D02*
X212110000Y-59065580D01*
%TO.C,J4*%
X201820000Y-92261000D02*
X201820000Y-82340000D01*
X203145000Y-88069000D02*
X203192000Y-88023000D01*
X203350000Y-88275000D02*
X203385000Y-88239000D01*
X205454000Y-85761000D02*
X205489000Y-85726000D01*
X205647000Y-85977000D02*
X205694000Y-85931000D01*
X212100000Y-82340000D02*
X201820000Y-82340000D01*
X212100000Y-82900000D02*
X201820000Y-82900000D01*
X212100000Y-84400000D02*
X201820000Y-84400000D01*
X212100000Y-89301000D02*
X201820000Y-89301000D01*
X212100000Y-92261000D02*
X201820000Y-92261000D01*
X212100000Y-92261000D02*
X212100000Y-82340000D01*
X212340000Y-82100000D02*
X211840000Y-82100000D01*
X212340000Y-82840000D02*
X212340000Y-82100000D01*
X207964573Y-87683042D02*
G75*
G02*
X207965000Y-86316000I1535427J683042D01*
G01*
X208816682Y-85465244D02*
G75*
G02*
X209500000Y-85320000I683318J-1534756D01*
G01*
X209471195Y-85319747D02*
G75*
G02*
X210184000Y-85465000I28806J-1680254D01*
G01*
X210183042Y-88535427D02*
G75*
G02*
X208816000Y-88535000I-683041J1535420D01*
G01*
X211035427Y-86316958D02*
G75*
G02*
X211035000Y-87684000I-1535420J-683041D01*
G01*
X206100000Y-87000000D02*
G75*
G02*
X202740000Y-87000000I-1680000J0D01*
G01*
X202740000Y-87000000D02*
G75*
G02*
X206100000Y-87000000I1680000J0D01*
G01*
%TO.C,C2*%
X200390000Y-79134420D02*
X200390000Y-79415580D01*
X201410000Y-79134420D02*
X201410000Y-79415580D01*
%TO.C,C6*%
X209490000Y-58759420D02*
X209490000Y-59040580D01*
X210510000Y-58759420D02*
X210510000Y-59040580D01*
%TO.C,JP4*%
X205770000Y-61170000D02*
X205770000Y-63830000D01*
X208370000Y-61170000D02*
X205770000Y-61170000D01*
X208370000Y-61170000D02*
X208370000Y-63830000D01*
X208370000Y-63830000D02*
X205770000Y-63830000D01*
X209640000Y-61170000D02*
X210970000Y-61170000D01*
X210970000Y-61170000D02*
X210970000Y-62500000D01*
%TO.C,J1*%
X187805000Y-51870000D02*
X187805000Y-54530000D01*
X190405000Y-51870000D02*
X187805000Y-51870000D01*
X190405000Y-51870000D02*
X190405000Y-54530000D01*
X190405000Y-54530000D02*
X187805000Y-54530000D01*
X191675000Y-51870000D02*
X193005000Y-51870000D01*
X193005000Y-51870000D02*
X193005000Y-53200000D01*
%TO.C,C8*%
X198865000Y-81587500D02*
X198865000Y-83872500D01*
X198865000Y-83872500D02*
X200335000Y-83872500D01*
X200335000Y-83872500D02*
X200335000Y-81587500D01*
%TO.C,R5*%
X207237742Y-55977500D02*
X207712258Y-55977500D01*
X207237742Y-57022500D02*
X207712258Y-57022500D01*
%TO.C,C3*%
X200484420Y-57390000D02*
X200765580Y-57390000D01*
X200484420Y-58410000D02*
X200765580Y-58410000D01*
%TO.C,R6*%
X217162742Y-61477500D02*
X217637258Y-61477500D01*
X217162742Y-62522500D02*
X217637258Y-62522500D01*
%TO.C,J2*%
X196930000Y-51570000D02*
X196930000Y-54230000D01*
X199530000Y-51570000D02*
X196930000Y-51570000D01*
X199530000Y-51570000D02*
X199530000Y-54230000D01*
X199530000Y-54230000D02*
X196930000Y-54230000D01*
X200800000Y-51570000D02*
X202130000Y-51570000D01*
X202130000Y-51570000D02*
X202130000Y-52900000D01*
%TO.C,C1*%
X198690000Y-79134420D02*
X198690000Y-79415580D01*
X199710000Y-79134420D02*
X199710000Y-79415580D01*
D11*
%TO.C,RV4*%
X180930000Y-82300000D02*
X180930000Y-75700000D01*
X180940000Y-75700000D02*
X183225000Y-75700000D01*
X183225000Y-82300000D02*
X180940000Y-82300000D01*
X185765000Y-75700000D02*
X187930000Y-75700000D01*
X187930000Y-75700000D02*
X187930000Y-82300000D01*
X187930000Y-82300000D02*
X185765000Y-82300000D01*
D12*
X184560000Y-74936000D02*
G75*
G02*
X184360000Y-74936000I-100000J0D01*
G01*
X184360000Y-74936000D02*
G75*
G02*
X184560000Y-74936000I100000J0D01*
G01*
D10*
%TO.C,U1*%
X198650000Y-68660000D02*
X198650000Y-73960000D01*
X198650000Y-73960000D02*
X208930000Y-73960000D01*
X208930000Y-68660000D02*
X198650000Y-68660000D01*
X208930000Y-70310000D02*
X208930000Y-68660000D01*
X208930000Y-73960000D02*
X208930000Y-72310000D01*
X208930000Y-72310000D02*
G75*
G02*
X208930000Y-70310000I0J1000000D01*
G01*
%TO.C,C4*%
X204590000Y-58784420D02*
X204590000Y-59065580D01*
X205610000Y-58784420D02*
X205610000Y-59065580D01*
D11*
%TO.C,RV2*%
X180930000Y-74300000D02*
X180930000Y-67700000D01*
X180940000Y-67700000D02*
X183225000Y-67700000D01*
X183225000Y-74300000D02*
X180940000Y-74300000D01*
X185765000Y-67700000D02*
X187930000Y-67700000D01*
X187930000Y-67700000D02*
X187930000Y-74300000D01*
X187930000Y-74300000D02*
X185765000Y-74300000D01*
D12*
X184560000Y-66936000D02*
G75*
G02*
X184360000Y-66936000I-100000J0D01*
G01*
X184360000Y-66936000D02*
G75*
G02*
X184560000Y-66936000I100000J0D01*
G01*
D10*
%TO.C,J5*%
X215390000Y-66540000D02*
X215390000Y-66920000D01*
X215390000Y-66540000D02*
X217160000Y-66540000D01*
X215390000Y-74160000D02*
X215390000Y-73780000D01*
X217160000Y-74160000D02*
X215390000Y-74160000D01*
X219440000Y-66540000D02*
X219700000Y-66540000D01*
X219700000Y-74160000D02*
X219440000Y-74160000D01*
%TO.C,R4*%
X207712258Y-57577500D02*
X207237742Y-57577500D01*
X207712258Y-58622500D02*
X207237742Y-58622500D01*
%TO.C,R2*%
X200912258Y-59177500D02*
X200437742Y-59177500D01*
X200912258Y-60222500D02*
X200437742Y-60222500D01*
%TO.C,JP2*%
X191005000Y-61470000D02*
X191005000Y-64130000D01*
X193605000Y-61470000D02*
X191005000Y-61470000D01*
X193605000Y-61470000D02*
X193605000Y-64130000D01*
X193605000Y-64130000D02*
X191005000Y-64130000D01*
X194875000Y-61470000D02*
X196205000Y-61470000D01*
X196205000Y-61470000D02*
X196205000Y-62800000D01*
%TO.C,D2*%
X201840000Y-78100000D02*
X201840000Y-80100000D01*
X201840000Y-78100000D02*
X205850000Y-78100000D01*
X201840000Y-80100000D02*
X205850000Y-80100000D01*
%TO.C,D1*%
X198600000Y-84040000D02*
X198600000Y-88050000D01*
X200600000Y-84040000D02*
X198600000Y-84040000D01*
X200600000Y-84040000D02*
X200600000Y-88050000D01*
D11*
%TO.C,RV1*%
X180930000Y-66300000D02*
X180930000Y-59700000D01*
X180940000Y-59700000D02*
X183225000Y-59700000D01*
X183225000Y-66300000D02*
X180940000Y-66300000D01*
X185765000Y-59700000D02*
X187930000Y-59700000D01*
X187930000Y-59700000D02*
X187930000Y-66300000D01*
X187930000Y-66300000D02*
X185765000Y-66300000D01*
D12*
X184560000Y-58936000D02*
G75*
G02*
X184360000Y-58936000I-100000J0D01*
G01*
X184360000Y-58936000D02*
G75*
G02*
X184560000Y-58936000I100000J0D01*
G01*
D10*
%TO.C,JP3*%
X198930000Y-61370000D02*
X198930000Y-64030000D01*
X201530000Y-61370000D02*
X198930000Y-61370000D01*
X201530000Y-61370000D02*
X201530000Y-64030000D01*
X201530000Y-64030000D02*
X198930000Y-64030000D01*
X202800000Y-61370000D02*
X204130000Y-61370000D01*
X204130000Y-61370000D02*
X204130000Y-62700000D01*
%TO.C,R3*%
X207237742Y-59177500D02*
X207712258Y-59177500D01*
X207237742Y-60222500D02*
X207712258Y-60222500D01*
%TO.C,C7*%
X193060000Y-85784888D02*
X191531000Y-85784888D01*
X193060000Y-85824888D02*
X191535000Y-85824888D01*
X193060000Y-85864888D02*
X191539000Y-85864888D01*
X193060000Y-85904888D02*
X191544000Y-85904888D01*
X193060000Y-85944888D02*
X191550000Y-85944888D01*
X193060000Y-85984888D02*
X191557000Y-85984888D01*
X193060000Y-86024888D02*
X191564000Y-86024888D01*
X193060000Y-86064888D02*
X191572000Y-86064888D01*
X193060000Y-86104888D02*
X191580000Y-86104888D01*
X193060000Y-86144888D02*
X191589000Y-86144888D01*
X193060000Y-86184888D02*
X191599000Y-86184888D01*
X193060000Y-86224888D02*
X191609000Y-86224888D01*
X193060000Y-86265888D02*
X191620000Y-86265888D01*
X193060000Y-86305888D02*
X191632000Y-86305888D01*
X193060000Y-86345888D02*
X191645000Y-86345888D01*
X193060000Y-86385888D02*
X191658000Y-86385888D01*
X193060000Y-86425888D02*
X191672000Y-86425888D01*
X193060000Y-86465888D02*
X191686000Y-86465888D01*
X193060000Y-86505888D02*
X191702000Y-86505888D01*
X193060000Y-86545888D02*
X191718000Y-86545888D01*
X193060000Y-86585888D02*
X191735000Y-86585888D01*
X193060000Y-86625888D02*
X191752000Y-86625888D01*
X193060000Y-86665888D02*
X191771000Y-86665888D01*
X193060000Y-86705888D02*
X191790000Y-86705888D01*
X193060000Y-86745888D02*
X191810000Y-86745888D01*
X193060000Y-86785888D02*
X191832000Y-86785888D01*
X193060000Y-86825888D02*
X191853000Y-86825888D01*
X193060000Y-86865888D02*
X191876000Y-86865888D01*
X193060000Y-86905888D02*
X191900000Y-86905888D01*
X193060000Y-86945888D02*
X191925000Y-86945888D01*
X193060000Y-86985888D02*
X191951000Y-86985888D01*
X193060000Y-87025888D02*
X191978000Y-87025888D01*
X193060000Y-87065888D02*
X192005000Y-87065888D01*
X193060000Y-87105888D02*
X192035000Y-87105888D01*
X193060000Y-87145888D02*
X192065000Y-87145888D01*
X193060000Y-87185888D02*
X192096000Y-87185888D01*
X193060000Y-87225888D02*
X192129000Y-87225888D01*
X193060000Y-87265888D02*
X192163000Y-87265888D01*
X193060000Y-87305888D02*
X192199000Y-87305888D01*
X193060000Y-87345888D02*
X192236000Y-87345888D01*
X193060000Y-87385888D02*
X192274000Y-87385888D01*
X193060000Y-87425888D02*
X192315000Y-87425888D01*
X193060000Y-87465888D02*
X192357000Y-87465888D01*
X193060000Y-87505888D02*
X192401000Y-87505888D01*
X193060000Y-87545888D02*
X192447000Y-87545888D01*
X193060000Y-87585888D02*
X192495000Y-87585888D01*
X193060000Y-87625888D02*
X192546000Y-87625888D01*
X193060000Y-87665888D02*
X192600000Y-87665888D01*
X193060000Y-87705888D02*
X192657000Y-87705888D01*
X193060000Y-87745888D02*
X192717000Y-87745888D01*
X193060000Y-87785888D02*
X192781000Y-87785888D01*
X193060000Y-87825888D02*
X192849000Y-87825888D01*
X194384000Y-88145888D02*
X193816000Y-88145888D01*
X194618000Y-88105888D02*
X193582000Y-88105888D01*
X194777000Y-88065888D02*
X193423000Y-88065888D01*
X194905000Y-88025888D02*
X193295000Y-88025888D01*
X195015000Y-87985888D02*
X193185000Y-87985888D01*
X195111000Y-87945888D02*
X193089000Y-87945888D01*
X195198000Y-87905888D02*
X193002000Y-87905888D01*
X195278000Y-87865888D02*
X192922000Y-87865888D01*
X195351000Y-87825888D02*
X195140000Y-87825888D01*
X195419000Y-87785888D02*
X195140000Y-87785888D01*
X195483000Y-87745888D02*
X195140000Y-87745888D01*
X195543000Y-87705888D02*
X195140000Y-87705888D01*
X195575000Y-82740113D02*
X195575000Y-83240113D01*
X195600000Y-87665888D02*
X195140000Y-87665888D01*
X195654000Y-87625888D02*
X195140000Y-87625888D01*
X195705000Y-87585888D02*
X195140000Y-87585888D01*
X195753000Y-87545888D02*
X195140000Y-87545888D01*
X195799000Y-87505888D02*
X195140000Y-87505888D01*
X195825000Y-82990113D02*
X195325000Y-82990113D01*
X195843000Y-87465888D02*
X195140000Y-87465888D01*
X195885000Y-87425888D02*
X195140000Y-87425888D01*
X195926000Y-87385888D02*
X195140000Y-87385888D01*
X195964000Y-87345888D02*
X195140000Y-87345888D01*
X196001000Y-87305888D02*
X195140000Y-87305888D01*
X196037000Y-87265888D02*
X195140000Y-87265888D01*
X196071000Y-87225888D02*
X195140000Y-87225888D01*
X196104000Y-87185888D02*
X195140000Y-87185888D01*
X196135000Y-87145888D02*
X195140000Y-87145888D01*
X196165000Y-87105888D02*
X195140000Y-87105888D01*
X196195000Y-87065888D02*
X195140000Y-87065888D01*
X196222000Y-87025888D02*
X195140000Y-87025888D01*
X196249000Y-86985888D02*
X195140000Y-86985888D01*
X196275000Y-86945888D02*
X195140000Y-86945888D01*
X196300000Y-86905888D02*
X195140000Y-86905888D01*
X196324000Y-86865888D02*
X195140000Y-86865888D01*
X196347000Y-86825888D02*
X195140000Y-86825888D01*
X196368000Y-86785888D02*
X195140000Y-86785888D01*
X196390000Y-86745888D02*
X195140000Y-86745888D01*
X196410000Y-86705888D02*
X195140000Y-86705888D01*
X196429000Y-86665888D02*
X195140000Y-86665888D01*
X196448000Y-86625888D02*
X195140000Y-86625888D01*
X196465000Y-86585888D02*
X195140000Y-86585888D01*
X196482000Y-86545888D02*
X195140000Y-86545888D01*
X196498000Y-86505888D02*
X195140000Y-86505888D01*
X196514000Y-86465888D02*
X195140000Y-86465888D01*
X196528000Y-86425888D02*
X195140000Y-86425888D01*
X196542000Y-86385888D02*
X195140000Y-86385888D01*
X196555000Y-86345888D02*
X195140000Y-86345888D01*
X196568000Y-86305888D02*
X195140000Y-86305888D01*
X196580000Y-86265888D02*
X195140000Y-86265888D01*
X196591000Y-86224888D02*
X195140000Y-86224888D01*
X196601000Y-86184888D02*
X195140000Y-86184888D01*
X196611000Y-86144888D02*
X195140000Y-86144888D01*
X196620000Y-86104888D02*
X195140000Y-86104888D01*
X196628000Y-86064888D02*
X195140000Y-86064888D01*
X196636000Y-86024888D02*
X195140000Y-86024888D01*
X196643000Y-85984888D02*
X195140000Y-85984888D01*
X196650000Y-85944888D02*
X195140000Y-85944888D01*
X196656000Y-85904888D02*
X195140000Y-85904888D01*
X196661000Y-85864888D02*
X195140000Y-85864888D01*
X196665000Y-85824888D02*
X195140000Y-85824888D01*
X196669000Y-85784888D02*
X195140000Y-85784888D01*
X196673000Y-85744888D02*
X191527000Y-85744888D01*
X196676000Y-85704888D02*
X191524000Y-85704888D01*
X196678000Y-85664888D02*
X191522000Y-85664888D01*
X196679000Y-85624888D02*
X191521000Y-85624888D01*
X196680000Y-85544888D02*
X191520000Y-85544888D01*
X196680000Y-85584888D02*
X191520000Y-85584888D01*
X196720000Y-85544888D02*
G75*
G02*
X191480000Y-85544888I-2620000J0D01*
G01*
X191480000Y-85544888D02*
G75*
G02*
X196720000Y-85544888I2620000J0D01*
G01*
%TO.C,D3*%
X215915000Y-63265000D02*
X215915000Y-64735000D01*
X215915000Y-64735000D02*
X218200000Y-64735000D01*
X218200000Y-63265000D02*
X215915000Y-63265000D01*
%TO.C,JP1*%
X192970000Y-68430000D02*
X194300000Y-68430000D01*
X192970000Y-69760000D02*
X192970000Y-68430000D01*
X192970000Y-71030000D02*
X192970000Y-73630000D01*
X192970000Y-71030000D02*
X195630000Y-71030000D01*
X192970000Y-73630000D02*
X195630000Y-73630000D01*
X195630000Y-71030000D02*
X195630000Y-73630000D01*
%TO.C,J3*%
X205530000Y-51470000D02*
X205530000Y-54130000D01*
X208130000Y-51470000D02*
X205530000Y-51470000D01*
X208130000Y-51470000D02*
X208130000Y-54130000D01*
X208130000Y-54130000D02*
X205530000Y-54130000D01*
X209400000Y-51470000D02*
X210730000Y-51470000D01*
X210730000Y-51470000D02*
X210730000Y-52800000D01*
%TO.C,R1*%
X196612258Y-66577500D02*
X196137742Y-66577500D01*
X196612258Y-67622500D02*
X196137742Y-67622500D01*
%TD*%
M02*
