%TF.GenerationSoftware,KiCad,Pcbnew,8.0.5*%
%TF.CreationDate,2024-09-29T15:37:14+05:30*%
%TF.ProjectId,waveform_generator,77617665-666f-4726-9d5f-67656e657261,rev?*%
%TF.SameCoordinates,Original*%
%TF.FileFunction,Drillmap*%
%TF.FilePolarity,Positive*%
%FSLAX45Y45*%
G04 Gerber Fmt 4.5, Leading zero omitted, Abs format (unit mm)*
G04 Created by KiCad (PCBNEW 8.0.5) date 2024-09-29 15:37:14*
%MOMM*%
%LPD*%
G01*
G04 APERTURE LIST*
%ADD10C,0.050000*%
%ADD11C,0.200000*%
G04 APERTURE END LIST*
D10*
X22000000Y-8600000D02*
X22000000Y-5400000D01*
X18000000Y-5400000D02*
G75*
G02*
X18400000Y-5000000I400000J0D01*
G01*
X18000000Y-8600000D02*
X18000000Y-5400000D01*
X21600000Y-5000000D02*
X18400000Y-5000000D01*
X21600000Y-5000000D02*
G75*
G02*
X22000000Y-5400000I0J-400000D01*
G01*
X21600000Y-9000000D02*
X18400000Y-9000000D01*
X18400000Y-9000000D02*
G75*
G02*
X18000000Y-8600000I0J400000D01*
G01*
X22000000Y-8600000D02*
G75*
G02*
X21600000Y-9000000I-400000J0D01*
G01*
D11*
X18258277Y-9313984D02*
X18258277Y-9113984D01*
X18258277Y-9113984D02*
X18305896Y-9113984D01*
X18305896Y-9113984D02*
X18334467Y-9123508D01*
X18334467Y-9123508D02*
X18353515Y-9142555D01*
X18353515Y-9142555D02*
X18363039Y-9161603D01*
X18363039Y-9161603D02*
X18372563Y-9199698D01*
X18372563Y-9199698D02*
X18372563Y-9228270D01*
X18372563Y-9228270D02*
X18363039Y-9266365D01*
X18363039Y-9266365D02*
X18353515Y-9285412D01*
X18353515Y-9285412D02*
X18334467Y-9304460D01*
X18334467Y-9304460D02*
X18305896Y-9313984D01*
X18305896Y-9313984D02*
X18258277Y-9313984D01*
X18458277Y-9313984D02*
X18458277Y-9180650D01*
X18458277Y-9218746D02*
X18467801Y-9199698D01*
X18467801Y-9199698D02*
X18477324Y-9190174D01*
X18477324Y-9190174D02*
X18496372Y-9180650D01*
X18496372Y-9180650D02*
X18515420Y-9180650D01*
X18582086Y-9313984D02*
X18582086Y-9180650D01*
X18582086Y-9113984D02*
X18572563Y-9123508D01*
X18572563Y-9123508D02*
X18582086Y-9133031D01*
X18582086Y-9133031D02*
X18591610Y-9123508D01*
X18591610Y-9123508D02*
X18582086Y-9113984D01*
X18582086Y-9113984D02*
X18582086Y-9133031D01*
X18705896Y-9313984D02*
X18686848Y-9304460D01*
X18686848Y-9304460D02*
X18677324Y-9285412D01*
X18677324Y-9285412D02*
X18677324Y-9113984D01*
X18810658Y-9313984D02*
X18791610Y-9304460D01*
X18791610Y-9304460D02*
X18782086Y-9285412D01*
X18782086Y-9285412D02*
X18782086Y-9113984D01*
X19039229Y-9313984D02*
X19039229Y-9113984D01*
X19039229Y-9113984D02*
X19105896Y-9256841D01*
X19105896Y-9256841D02*
X19172563Y-9113984D01*
X19172563Y-9113984D02*
X19172563Y-9313984D01*
X19353515Y-9313984D02*
X19353515Y-9209222D01*
X19353515Y-9209222D02*
X19343991Y-9190174D01*
X19343991Y-9190174D02*
X19324944Y-9180650D01*
X19324944Y-9180650D02*
X19286848Y-9180650D01*
X19286848Y-9180650D02*
X19267801Y-9190174D01*
X19353515Y-9304460D02*
X19334467Y-9313984D01*
X19334467Y-9313984D02*
X19286848Y-9313984D01*
X19286848Y-9313984D02*
X19267801Y-9304460D01*
X19267801Y-9304460D02*
X19258277Y-9285412D01*
X19258277Y-9285412D02*
X19258277Y-9266365D01*
X19258277Y-9266365D02*
X19267801Y-9247317D01*
X19267801Y-9247317D02*
X19286848Y-9237793D01*
X19286848Y-9237793D02*
X19334467Y-9237793D01*
X19334467Y-9237793D02*
X19353515Y-9228270D01*
X19448753Y-9180650D02*
X19448753Y-9380650D01*
X19448753Y-9190174D02*
X19467801Y-9180650D01*
X19467801Y-9180650D02*
X19505896Y-9180650D01*
X19505896Y-9180650D02*
X19524944Y-9190174D01*
X19524944Y-9190174D02*
X19534467Y-9199698D01*
X19534467Y-9199698D02*
X19543991Y-9218746D01*
X19543991Y-9218746D02*
X19543991Y-9275889D01*
X19543991Y-9275889D02*
X19534467Y-9294936D01*
X19534467Y-9294936D02*
X19524944Y-9304460D01*
X19524944Y-9304460D02*
X19505896Y-9313984D01*
X19505896Y-9313984D02*
X19467801Y-9313984D01*
X19467801Y-9313984D02*
X19448753Y-9304460D01*
X19629705Y-9294936D02*
X19639229Y-9304460D01*
X19639229Y-9304460D02*
X19629705Y-9313984D01*
X19629705Y-9313984D02*
X19620182Y-9304460D01*
X19620182Y-9304460D02*
X19629705Y-9294936D01*
X19629705Y-9294936D02*
X19629705Y-9313984D01*
X19629705Y-9190174D02*
X19639229Y-9199698D01*
X19639229Y-9199698D02*
X19629705Y-9209222D01*
X19629705Y-9209222D02*
X19620182Y-9199698D01*
X19620182Y-9199698D02*
X19629705Y-9190174D01*
X19629705Y-9190174D02*
X19629705Y-9209222D01*
M02*
