%TF.GenerationSoftware,KiCad,Pcbnew,8.0.5*%
%TF.CreationDate,2024-09-29T15:37:14+05:30*%
%TF.ProjectId,waveform_generator,77617665-666f-4726-9d5f-67656e657261,rev?*%
%TF.SameCoordinates,Original*%
%TF.FileFunction,Drillmap*%
%TF.FilePolarity,Positive*%
%FSLAX45Y45*%
G04 Gerber Fmt 4.5, Leading zero omitted, Abs format (unit mm)*
G04 Created by KiCad (PCBNEW 8.0.5) date 2024-09-29 15:37:14*
%MOMM*%
%LPD*%
G01*
G04 APERTURE LIST*
%ADD10C,0.050000*%
%ADD11C,0.200000*%
%ADD12C,0.100000*%
%ADD13C,0.130000*%
%ADD14C,0.220000*%
G04 APERTURE END LIST*
D10*
X22000000Y-8600000D02*
X22000000Y-5400000D01*
X18000000Y-5400000D02*
G75*
G02*
X18400000Y-5000000I400000J0D01*
G01*
X18000000Y-8600000D02*
X18000000Y-5400000D01*
X21600000Y-5000000D02*
X18400000Y-5000000D01*
X21600000Y-5000000D02*
G75*
G02*
X22000000Y-5400000I0J-400000D01*
G01*
X21600000Y-9000000D02*
X18400000Y-9000000D01*
X18400000Y-9000000D02*
G75*
G02*
X18000000Y-8600000I0J400000D01*
G01*
X22000000Y-8600000D02*
G75*
G02*
X21600000Y-9000000I-400000J0D01*
G01*
D11*
D12*
X19635000Y-7985000D02*
X19665000Y-8015000D01*
X19665000Y-7985000D02*
X19635000Y-8015000D01*
X18190000Y-8616673D02*
G75*
G02*
X18150000Y-8616673I-20000J0D01*
G01*
X18150000Y-8616673D02*
G75*
G02*
X18190000Y-8616673I20000J0D01*
G01*
X18191673Y-5353327D02*
G75*
G02*
X18151673Y-5353327I-20000J0D01*
G01*
X18151673Y-5353327D02*
G75*
G02*
X18191673Y-5353327I20000J0D01*
G01*
X18238327Y-8500000D02*
G75*
G02*
X18198327Y-8500000I-20000J0D01*
G01*
X18198327Y-8500000D02*
G75*
G02*
X18238327Y-8500000I20000J0D01*
G01*
X18238327Y-8733345D02*
G75*
G02*
X18198327Y-8733345I-20000J0D01*
G01*
X18198327Y-8733345D02*
G75*
G02*
X18238327Y-8733345I20000J0D01*
G01*
X18240000Y-5236655D02*
G75*
G02*
X18200000Y-5236655I-20000J0D01*
G01*
X18200000Y-5236655D02*
G75*
G02*
X18240000Y-5236655I20000J0D01*
G01*
X18240000Y-5470000D02*
G75*
G02*
X18200000Y-5470000I-20000J0D01*
G01*
X18200000Y-5470000D02*
G75*
G02*
X18240000Y-5470000I20000J0D01*
G01*
X18355000Y-8451673D02*
G75*
G02*
X18315000Y-8451673I-20000J0D01*
G01*
X18315000Y-8451673D02*
G75*
G02*
X18355000Y-8451673I20000J0D01*
G01*
X18355000Y-8781673D02*
G75*
G02*
X18315000Y-8781673I-20000J0D01*
G01*
X18315000Y-8781673D02*
G75*
G02*
X18355000Y-8781673I20000J0D01*
G01*
X18356673Y-5188327D02*
G75*
G02*
X18316673Y-5188327I-20000J0D01*
G01*
X18316673Y-5188327D02*
G75*
G02*
X18356673Y-5188327I20000J0D01*
G01*
X18356673Y-5518327D02*
G75*
G02*
X18316673Y-5518327I-20000J0D01*
G01*
X18316673Y-5518327D02*
G75*
G02*
X18356673Y-5518327I20000J0D01*
G01*
X18471673Y-8500000D02*
G75*
G02*
X18431673Y-8500000I-20000J0D01*
G01*
X18431673Y-8500000D02*
G75*
G02*
X18471673Y-8500000I20000J0D01*
G01*
X18471673Y-8733345D02*
G75*
G02*
X18431673Y-8733345I-20000J0D01*
G01*
X18431673Y-8733345D02*
G75*
G02*
X18471673Y-8733345I20000J0D01*
G01*
X18473345Y-5236655D02*
G75*
G02*
X18433345Y-5236655I-20000J0D01*
G01*
X18433345Y-5236655D02*
G75*
G02*
X18473345Y-5236655I20000J0D01*
G01*
X18473345Y-5470000D02*
G75*
G02*
X18433345Y-5470000I-20000J0D01*
G01*
X18433345Y-5470000D02*
G75*
G02*
X18473345Y-5470000I20000J0D01*
G01*
X18520000Y-8616673D02*
G75*
G02*
X18480000Y-8616673I-20000J0D01*
G01*
X18480000Y-8616673D02*
G75*
G02*
X18520000Y-8616673I20000J0D01*
G01*
X18521673Y-5353327D02*
G75*
G02*
X18481673Y-5353327I-20000J0D01*
G01*
X18481673Y-5353327D02*
G75*
G02*
X18521673Y-5353327I20000J0D01*
G01*
X21488327Y-8576673D02*
G75*
G02*
X21448327Y-8576673I-20000J0D01*
G01*
X21448327Y-8576673D02*
G75*
G02*
X21488327Y-8576673I20000J0D01*
G01*
X21490000Y-5360000D02*
G75*
G02*
X21450000Y-5360000I-20000J0D01*
G01*
X21450000Y-5360000D02*
G75*
G02*
X21490000Y-5360000I20000J0D01*
G01*
X21536655Y-8460000D02*
G75*
G02*
X21496655Y-8460000I-20000J0D01*
G01*
X21496655Y-8460000D02*
G75*
G02*
X21536655Y-8460000I20000J0D01*
G01*
X21536655Y-8693345D02*
G75*
G02*
X21496655Y-8693345I-20000J0D01*
G01*
X21496655Y-8693345D02*
G75*
G02*
X21536655Y-8693345I20000J0D01*
G01*
X21538327Y-5243327D02*
G75*
G02*
X21498327Y-5243327I-20000J0D01*
G01*
X21498327Y-5243327D02*
G75*
G02*
X21538327Y-5243327I20000J0D01*
G01*
X21538327Y-5476673D02*
G75*
G02*
X21498327Y-5476673I-20000J0D01*
G01*
X21498327Y-5476673D02*
G75*
G02*
X21538327Y-5476673I20000J0D01*
G01*
X21653327Y-8411673D02*
G75*
G02*
X21613327Y-8411673I-20000J0D01*
G01*
X21613327Y-8411673D02*
G75*
G02*
X21653327Y-8411673I20000J0D01*
G01*
X21653327Y-8741673D02*
G75*
G02*
X21613327Y-8741673I-20000J0D01*
G01*
X21613327Y-8741673D02*
G75*
G02*
X21653327Y-8741673I20000J0D01*
G01*
X21655000Y-5195000D02*
G75*
G02*
X21615000Y-5195000I-20000J0D01*
G01*
X21615000Y-5195000D02*
G75*
G02*
X21655000Y-5195000I20000J0D01*
G01*
X21655000Y-5525000D02*
G75*
G02*
X21615000Y-5525000I-20000J0D01*
G01*
X21615000Y-5525000D02*
G75*
G02*
X21655000Y-5525000I20000J0D01*
G01*
X21770000Y-8460000D02*
G75*
G02*
X21730000Y-8460000I-20000J0D01*
G01*
X21730000Y-8460000D02*
G75*
G02*
X21770000Y-8460000I20000J0D01*
G01*
X21770000Y-8693345D02*
G75*
G02*
X21730000Y-8693345I-20000J0D01*
G01*
X21730000Y-8693345D02*
G75*
G02*
X21770000Y-8693345I20000J0D01*
G01*
X21771673Y-5243327D02*
G75*
G02*
X21731673Y-5243327I-20000J0D01*
G01*
X21731673Y-5243327D02*
G75*
G02*
X21771673Y-5243327I20000J0D01*
G01*
X21771673Y-5476673D02*
G75*
G02*
X21731673Y-5476673I-20000J0D01*
G01*
X21731673Y-5476673D02*
G75*
G02*
X21771673Y-5476673I20000J0D01*
G01*
X21818327Y-8576673D02*
G75*
G02*
X21778327Y-8576673I-20000J0D01*
G01*
X21778327Y-8576673D02*
G75*
G02*
X21818327Y-8576673I20000J0D01*
G01*
X21820000Y-5360000D02*
G75*
G02*
X21780000Y-5360000I-20000J0D01*
G01*
X21780000Y-5360000D02*
G75*
G02*
X21820000Y-5360000I20000J0D01*
G01*
X18446000Y-6010300D02*
X18446000Y-6081700D01*
X18410300Y-6046000D02*
X18481700Y-6046000D01*
X18446000Y-6518300D02*
X18446000Y-6589700D01*
X18410300Y-6554000D02*
X18481700Y-6554000D01*
X18446000Y-6810300D02*
X18446000Y-6881700D01*
X18410300Y-6846000D02*
X18481700Y-6846000D01*
X18446000Y-7318300D02*
X18446000Y-7389700D01*
X18410300Y-7354000D02*
X18481700Y-7354000D01*
X18446000Y-7610300D02*
X18446000Y-7681700D01*
X18410300Y-7646000D02*
X18481700Y-7646000D01*
X18446000Y-8118300D02*
X18446000Y-8189700D01*
X18410300Y-8154000D02*
X18481700Y-8154000D01*
X18700000Y-6264300D02*
X18700000Y-6335700D01*
X18664300Y-6300000D02*
X18735700Y-6300000D01*
X18700000Y-7064300D02*
X18700000Y-7135700D01*
X18664300Y-7100000D02*
X18735700Y-7100000D01*
X18700000Y-7864300D02*
X18700000Y-7935700D01*
X18664300Y-7900000D02*
X18735700Y-7900000D01*
X19438285Y-8457773D02*
X19438285Y-8401204D01*
X19381716Y-8401204D01*
X19381716Y-8457773D01*
X19438285Y-8457773D01*
X19438285Y-8707773D02*
X19438285Y-8651204D01*
X19381716Y-8651204D01*
X19381716Y-8707773D01*
X19438285Y-8707773D01*
X20026285Y-6778284D02*
X20026285Y-6721715D01*
X19969716Y-6721715D01*
X19969716Y-6778284D01*
X20026285Y-6778284D01*
X20026285Y-7540284D02*
X20026285Y-7483715D01*
X19969716Y-7483715D01*
X19969716Y-7540284D01*
X20026285Y-7540284D01*
X20280285Y-6778284D02*
X20280285Y-6721715D01*
X20223716Y-6721715D01*
X20223716Y-6778284D01*
X20280285Y-6778284D01*
X20280285Y-7540284D02*
X20280285Y-7483715D01*
X20223716Y-7483715D01*
X20223716Y-7540284D01*
X20280285Y-7540284D01*
X20534285Y-6778284D02*
X20534285Y-6721715D01*
X20477716Y-6721715D01*
X20477716Y-6778284D01*
X20534285Y-6778284D01*
X20534285Y-7540284D02*
X20534285Y-7483715D01*
X20477716Y-7483715D01*
X20477716Y-7540284D01*
X20534285Y-7540284D01*
X20788285Y-6778284D02*
X20788285Y-6721715D01*
X20731716Y-6721715D01*
X20731716Y-6778284D01*
X20788285Y-6778284D01*
X20788285Y-7540284D02*
X20788285Y-7483715D01*
X20731716Y-7483715D01*
X20731716Y-7540284D01*
X20788285Y-7540284D01*
X18913500Y-5370000D02*
X18963500Y-5320000D01*
X18913500Y-5270000D01*
X18863500Y-5320000D01*
X18913500Y-5370000D01*
X19167500Y-5370000D02*
X19217500Y-5320000D01*
X19167500Y-5270000D01*
X19117500Y-5320000D01*
X19167500Y-5370000D01*
X19233500Y-6330000D02*
X19283500Y-6280000D01*
X19233500Y-6230000D01*
X19183500Y-6280000D01*
X19233500Y-6330000D01*
X19430000Y-7026000D02*
X19480000Y-6976000D01*
X19430000Y-6926000D01*
X19380000Y-6976000D01*
X19430000Y-7026000D01*
X19430000Y-7280000D02*
X19480000Y-7230000D01*
X19430000Y-7180000D01*
X19380000Y-7230000D01*
X19430000Y-7280000D01*
X19487500Y-6330000D02*
X19537500Y-6280000D01*
X19487500Y-6230000D01*
X19437500Y-6280000D01*
X19487500Y-6330000D01*
X19826000Y-5340000D02*
X19876000Y-5290000D01*
X19826000Y-5240000D01*
X19776000Y-5290000D01*
X19826000Y-5340000D01*
X20026000Y-6320000D02*
X20076000Y-6270000D01*
X20026000Y-6220000D01*
X19976000Y-6270000D01*
X20026000Y-6320000D01*
X20080000Y-5340000D02*
X20130000Y-5290000D01*
X20080000Y-5240000D01*
X20030000Y-5290000D01*
X20080000Y-5340000D01*
X20280000Y-6320000D02*
X20330000Y-6270000D01*
X20280000Y-6220000D01*
X20230000Y-6270000D01*
X20280000Y-6320000D01*
X20686000Y-5330000D02*
X20736000Y-5280000D01*
X20686000Y-5230000D01*
X20636000Y-5280000D01*
X20686000Y-5330000D01*
X20710000Y-6300000D02*
X20760000Y-6250000D01*
X20710000Y-6200000D01*
X20660000Y-6250000D01*
X20710000Y-6300000D01*
X20940000Y-5330000D02*
X20990000Y-5280000D01*
X20940000Y-5230000D01*
X20890000Y-5280000D01*
X20940000Y-5330000D01*
X20964000Y-6300000D02*
X21014000Y-6250000D01*
X20964000Y-6200000D01*
X20914000Y-6250000D01*
X20964000Y-6300000D01*
D13*
X20377000Y-8635000D02*
X20507000Y-8765000D01*
X20507000Y-8635000D02*
X20377000Y-8765000D01*
X20507000Y-8700000D02*
G75*
G02*
X20377000Y-8700000I-65000J0D01*
G01*
X20377000Y-8700000D02*
G75*
G02*
X20507000Y-8700000I65000J0D01*
G01*
X20885000Y-8635000D02*
X21015000Y-8765000D01*
X21015000Y-8635000D02*
X20885000Y-8765000D01*
X21015000Y-8700000D02*
G75*
G02*
X20885000Y-8700000I-65000J0D01*
G01*
X20885000Y-8700000D02*
G75*
G02*
X21015000Y-8700000I65000J0D01*
G01*
D14*
X18225000Y-8506673D02*
X18445000Y-8726673D01*
X18445000Y-8506673D02*
X18225000Y-8726673D01*
X18335000Y-8506673D02*
X18335000Y-8726673D01*
X18225000Y-8616673D02*
X18445000Y-8616673D01*
X18226673Y-5243327D02*
X18446673Y-5463327D01*
X18446673Y-5243327D02*
X18226673Y-5463327D01*
X18336673Y-5243327D02*
X18336673Y-5463327D01*
X18226673Y-5353327D02*
X18446673Y-5353327D01*
X21523327Y-8466673D02*
X21743327Y-8686673D01*
X21743327Y-8466673D02*
X21523327Y-8686673D01*
X21633327Y-8466673D02*
X21633327Y-8686673D01*
X21523327Y-8576673D02*
X21743327Y-8576673D01*
X21525000Y-5250000D02*
X21745000Y-5470000D01*
X21745000Y-5250000D02*
X21525000Y-5470000D01*
X21635000Y-5250000D02*
X21635000Y-5470000D01*
X21525000Y-5360000D02*
X21745000Y-5360000D01*
D11*
X18258277Y-9313984D02*
X18258277Y-9113984D01*
X18258277Y-9113984D02*
X18305896Y-9113984D01*
X18305896Y-9113984D02*
X18334467Y-9123508D01*
X18334467Y-9123508D02*
X18353515Y-9142555D01*
X18353515Y-9142555D02*
X18363039Y-9161603D01*
X18363039Y-9161603D02*
X18372563Y-9199698D01*
X18372563Y-9199698D02*
X18372563Y-9228270D01*
X18372563Y-9228270D02*
X18363039Y-9266365D01*
X18363039Y-9266365D02*
X18353515Y-9285412D01*
X18353515Y-9285412D02*
X18334467Y-9304460D01*
X18334467Y-9304460D02*
X18305896Y-9313984D01*
X18305896Y-9313984D02*
X18258277Y-9313984D01*
X18458277Y-9313984D02*
X18458277Y-9180650D01*
X18458277Y-9218746D02*
X18467801Y-9199698D01*
X18467801Y-9199698D02*
X18477324Y-9190174D01*
X18477324Y-9190174D02*
X18496372Y-9180650D01*
X18496372Y-9180650D02*
X18515420Y-9180650D01*
X18582086Y-9313984D02*
X18582086Y-9180650D01*
X18582086Y-9113984D02*
X18572563Y-9123508D01*
X18572563Y-9123508D02*
X18582086Y-9133031D01*
X18582086Y-9133031D02*
X18591610Y-9123508D01*
X18591610Y-9123508D02*
X18582086Y-9113984D01*
X18582086Y-9113984D02*
X18582086Y-9133031D01*
X18705896Y-9313984D02*
X18686848Y-9304460D01*
X18686848Y-9304460D02*
X18677324Y-9285412D01*
X18677324Y-9285412D02*
X18677324Y-9113984D01*
X18810658Y-9313984D02*
X18791610Y-9304460D01*
X18791610Y-9304460D02*
X18782086Y-9285412D01*
X18782086Y-9285412D02*
X18782086Y-9113984D01*
X19039229Y-9313984D02*
X19039229Y-9113984D01*
X19039229Y-9113984D02*
X19105896Y-9256841D01*
X19105896Y-9256841D02*
X19172563Y-9113984D01*
X19172563Y-9113984D02*
X19172563Y-9313984D01*
X19353515Y-9313984D02*
X19353515Y-9209222D01*
X19353515Y-9209222D02*
X19343991Y-9190174D01*
X19343991Y-9190174D02*
X19324944Y-9180650D01*
X19324944Y-9180650D02*
X19286848Y-9180650D01*
X19286848Y-9180650D02*
X19267801Y-9190174D01*
X19353515Y-9304460D02*
X19334467Y-9313984D01*
X19334467Y-9313984D02*
X19286848Y-9313984D01*
X19286848Y-9313984D02*
X19267801Y-9304460D01*
X19267801Y-9304460D02*
X19258277Y-9285412D01*
X19258277Y-9285412D02*
X19258277Y-9266365D01*
X19258277Y-9266365D02*
X19267801Y-9247317D01*
X19267801Y-9247317D02*
X19286848Y-9237793D01*
X19286848Y-9237793D02*
X19334467Y-9237793D01*
X19334467Y-9237793D02*
X19353515Y-9228270D01*
X19448753Y-9180650D02*
X19448753Y-9380650D01*
X19448753Y-9190174D02*
X19467801Y-9180650D01*
X19467801Y-9180650D02*
X19505896Y-9180650D01*
X19505896Y-9180650D02*
X19524944Y-9190174D01*
X19524944Y-9190174D02*
X19534467Y-9199698D01*
X19534467Y-9199698D02*
X19543991Y-9218746D01*
X19543991Y-9218746D02*
X19543991Y-9275889D01*
X19543991Y-9275889D02*
X19534467Y-9294936D01*
X19534467Y-9294936D02*
X19524944Y-9304460D01*
X19524944Y-9304460D02*
X19505896Y-9313984D01*
X19505896Y-9313984D02*
X19467801Y-9313984D01*
X19467801Y-9313984D02*
X19448753Y-9304460D01*
X19629705Y-9294936D02*
X19639229Y-9304460D01*
X19639229Y-9304460D02*
X19629705Y-9313984D01*
X19629705Y-9313984D02*
X19620182Y-9304460D01*
X19620182Y-9304460D02*
X19629705Y-9294936D01*
X19629705Y-9294936D02*
X19629705Y-9313984D01*
X19629705Y-9190174D02*
X19639229Y-9199698D01*
X19639229Y-9199698D02*
X19629705Y-9209222D01*
X19629705Y-9209222D02*
X19620182Y-9199698D01*
X19620182Y-9199698D02*
X19629705Y-9190174D01*
X19629705Y-9190174D02*
X19629705Y-9209222D01*
D12*
X17967500Y-9627500D02*
X17997500Y-9657500D01*
X17997500Y-9627500D02*
X17967500Y-9657500D01*
D11*
X18296372Y-9533984D02*
X18315420Y-9533984D01*
X18315420Y-9533984D02*
X18334467Y-9543508D01*
X18334467Y-9543508D02*
X18343991Y-9553031D01*
X18343991Y-9553031D02*
X18353515Y-9572079D01*
X18353515Y-9572079D02*
X18363039Y-9610174D01*
X18363039Y-9610174D02*
X18363039Y-9657793D01*
X18363039Y-9657793D02*
X18353515Y-9695889D01*
X18353515Y-9695889D02*
X18343991Y-9714936D01*
X18343991Y-9714936D02*
X18334467Y-9724460D01*
X18334467Y-9724460D02*
X18315420Y-9733984D01*
X18315420Y-9733984D02*
X18296372Y-9733984D01*
X18296372Y-9733984D02*
X18277324Y-9724460D01*
X18277324Y-9724460D02*
X18267801Y-9714936D01*
X18267801Y-9714936D02*
X18258277Y-9695889D01*
X18258277Y-9695889D02*
X18248753Y-9657793D01*
X18248753Y-9657793D02*
X18248753Y-9610174D01*
X18248753Y-9610174D02*
X18258277Y-9572079D01*
X18258277Y-9572079D02*
X18267801Y-9553031D01*
X18267801Y-9553031D02*
X18277324Y-9543508D01*
X18277324Y-9543508D02*
X18296372Y-9533984D01*
X18448753Y-9714936D02*
X18458277Y-9724460D01*
X18458277Y-9724460D02*
X18448753Y-9733984D01*
X18448753Y-9733984D02*
X18439229Y-9724460D01*
X18439229Y-9724460D02*
X18448753Y-9714936D01*
X18448753Y-9714936D02*
X18448753Y-9733984D01*
X18524944Y-9533984D02*
X18648753Y-9533984D01*
X18648753Y-9533984D02*
X18582086Y-9610174D01*
X18582086Y-9610174D02*
X18610658Y-9610174D01*
X18610658Y-9610174D02*
X18629705Y-9619698D01*
X18629705Y-9619698D02*
X18639229Y-9629222D01*
X18639229Y-9629222D02*
X18648753Y-9648270D01*
X18648753Y-9648270D02*
X18648753Y-9695889D01*
X18648753Y-9695889D02*
X18639229Y-9714936D01*
X18639229Y-9714936D02*
X18629705Y-9724460D01*
X18629705Y-9724460D02*
X18610658Y-9733984D01*
X18610658Y-9733984D02*
X18553515Y-9733984D01*
X18553515Y-9733984D02*
X18534467Y-9724460D01*
X18534467Y-9724460D02*
X18524944Y-9714936D01*
X18772563Y-9533984D02*
X18791610Y-9533984D01*
X18791610Y-9533984D02*
X18810658Y-9543508D01*
X18810658Y-9543508D02*
X18820182Y-9553031D01*
X18820182Y-9553031D02*
X18829705Y-9572079D01*
X18829705Y-9572079D02*
X18839229Y-9610174D01*
X18839229Y-9610174D02*
X18839229Y-9657793D01*
X18839229Y-9657793D02*
X18829705Y-9695889D01*
X18829705Y-9695889D02*
X18820182Y-9714936D01*
X18820182Y-9714936D02*
X18810658Y-9724460D01*
X18810658Y-9724460D02*
X18791610Y-9733984D01*
X18791610Y-9733984D02*
X18772563Y-9733984D01*
X18772563Y-9733984D02*
X18753515Y-9724460D01*
X18753515Y-9724460D02*
X18743991Y-9714936D01*
X18743991Y-9714936D02*
X18734467Y-9695889D01*
X18734467Y-9695889D02*
X18724944Y-9657793D01*
X18724944Y-9657793D02*
X18724944Y-9610174D01*
X18724944Y-9610174D02*
X18734467Y-9572079D01*
X18734467Y-9572079D02*
X18743991Y-9553031D01*
X18743991Y-9553031D02*
X18753515Y-9543508D01*
X18753515Y-9543508D02*
X18772563Y-9533984D01*
X18963039Y-9533984D02*
X18982086Y-9533984D01*
X18982086Y-9533984D02*
X19001134Y-9543508D01*
X19001134Y-9543508D02*
X19010658Y-9553031D01*
X19010658Y-9553031D02*
X19020182Y-9572079D01*
X19020182Y-9572079D02*
X19029705Y-9610174D01*
X19029705Y-9610174D02*
X19029705Y-9657793D01*
X19029705Y-9657793D02*
X19020182Y-9695889D01*
X19020182Y-9695889D02*
X19010658Y-9714936D01*
X19010658Y-9714936D02*
X19001134Y-9724460D01*
X19001134Y-9724460D02*
X18982086Y-9733984D01*
X18982086Y-9733984D02*
X18963039Y-9733984D01*
X18963039Y-9733984D02*
X18943991Y-9724460D01*
X18943991Y-9724460D02*
X18934467Y-9714936D01*
X18934467Y-9714936D02*
X18924944Y-9695889D01*
X18924944Y-9695889D02*
X18915420Y-9657793D01*
X18915420Y-9657793D02*
X18915420Y-9610174D01*
X18915420Y-9610174D02*
X18924944Y-9572079D01*
X18924944Y-9572079D02*
X18934467Y-9553031D01*
X18934467Y-9553031D02*
X18943991Y-9543508D01*
X18943991Y-9543508D02*
X18963039Y-9533984D01*
X19115420Y-9733984D02*
X19115420Y-9600650D01*
X19115420Y-9619698D02*
X19124944Y-9610174D01*
X19124944Y-9610174D02*
X19143991Y-9600650D01*
X19143991Y-9600650D02*
X19172563Y-9600650D01*
X19172563Y-9600650D02*
X19191610Y-9610174D01*
X19191610Y-9610174D02*
X19201134Y-9629222D01*
X19201134Y-9629222D02*
X19201134Y-9733984D01*
X19201134Y-9629222D02*
X19210658Y-9610174D01*
X19210658Y-9610174D02*
X19229705Y-9600650D01*
X19229705Y-9600650D02*
X19258277Y-9600650D01*
X19258277Y-9600650D02*
X19277325Y-9610174D01*
X19277325Y-9610174D02*
X19286848Y-9629222D01*
X19286848Y-9629222D02*
X19286848Y-9733984D01*
X19382086Y-9733984D02*
X19382086Y-9600650D01*
X19382086Y-9619698D02*
X19391610Y-9610174D01*
X19391610Y-9610174D02*
X19410658Y-9600650D01*
X19410658Y-9600650D02*
X19439229Y-9600650D01*
X19439229Y-9600650D02*
X19458277Y-9610174D01*
X19458277Y-9610174D02*
X19467801Y-9629222D01*
X19467801Y-9629222D02*
X19467801Y-9733984D01*
X19467801Y-9629222D02*
X19477325Y-9610174D01*
X19477325Y-9610174D02*
X19496372Y-9600650D01*
X19496372Y-9600650D02*
X19524944Y-9600650D01*
X19524944Y-9600650D02*
X19543991Y-9610174D01*
X19543991Y-9610174D02*
X19553515Y-9629222D01*
X19553515Y-9629222D02*
X19553515Y-9733984D01*
X19943991Y-9524460D02*
X19772563Y-9781603D01*
X20201134Y-9533984D02*
X20220182Y-9533984D01*
X20220182Y-9533984D02*
X20239229Y-9543508D01*
X20239229Y-9543508D02*
X20248753Y-9553031D01*
X20248753Y-9553031D02*
X20258277Y-9572079D01*
X20258277Y-9572079D02*
X20267801Y-9610174D01*
X20267801Y-9610174D02*
X20267801Y-9657793D01*
X20267801Y-9657793D02*
X20258277Y-9695889D01*
X20258277Y-9695889D02*
X20248753Y-9714936D01*
X20248753Y-9714936D02*
X20239229Y-9724460D01*
X20239229Y-9724460D02*
X20220182Y-9733984D01*
X20220182Y-9733984D02*
X20201134Y-9733984D01*
X20201134Y-9733984D02*
X20182087Y-9724460D01*
X20182087Y-9724460D02*
X20172563Y-9714936D01*
X20172563Y-9714936D02*
X20163039Y-9695889D01*
X20163039Y-9695889D02*
X20153515Y-9657793D01*
X20153515Y-9657793D02*
X20153515Y-9610174D01*
X20153515Y-9610174D02*
X20163039Y-9572079D01*
X20163039Y-9572079D02*
X20172563Y-9553031D01*
X20172563Y-9553031D02*
X20182087Y-9543508D01*
X20182087Y-9543508D02*
X20201134Y-9533984D01*
X20353515Y-9714936D02*
X20363039Y-9724460D01*
X20363039Y-9724460D02*
X20353515Y-9733984D01*
X20353515Y-9733984D02*
X20343991Y-9724460D01*
X20343991Y-9724460D02*
X20353515Y-9714936D01*
X20353515Y-9714936D02*
X20353515Y-9733984D01*
X20486848Y-9533984D02*
X20505896Y-9533984D01*
X20505896Y-9533984D02*
X20524944Y-9543508D01*
X20524944Y-9543508D02*
X20534468Y-9553031D01*
X20534468Y-9553031D02*
X20543991Y-9572079D01*
X20543991Y-9572079D02*
X20553515Y-9610174D01*
X20553515Y-9610174D02*
X20553515Y-9657793D01*
X20553515Y-9657793D02*
X20543991Y-9695889D01*
X20543991Y-9695889D02*
X20534468Y-9714936D01*
X20534468Y-9714936D02*
X20524944Y-9724460D01*
X20524944Y-9724460D02*
X20505896Y-9733984D01*
X20505896Y-9733984D02*
X20486848Y-9733984D01*
X20486848Y-9733984D02*
X20467801Y-9724460D01*
X20467801Y-9724460D02*
X20458277Y-9714936D01*
X20458277Y-9714936D02*
X20448753Y-9695889D01*
X20448753Y-9695889D02*
X20439229Y-9657793D01*
X20439229Y-9657793D02*
X20439229Y-9610174D01*
X20439229Y-9610174D02*
X20448753Y-9572079D01*
X20448753Y-9572079D02*
X20458277Y-9553031D01*
X20458277Y-9553031D02*
X20467801Y-9543508D01*
X20467801Y-9543508D02*
X20486848Y-9533984D01*
X20743991Y-9733984D02*
X20629706Y-9733984D01*
X20686848Y-9733984D02*
X20686848Y-9533984D01*
X20686848Y-9533984D02*
X20667801Y-9562555D01*
X20667801Y-9562555D02*
X20648753Y-9581603D01*
X20648753Y-9581603D02*
X20629706Y-9591127D01*
X20934468Y-9733984D02*
X20820182Y-9733984D01*
X20877325Y-9733984D02*
X20877325Y-9533984D01*
X20877325Y-9533984D02*
X20858277Y-9562555D01*
X20858277Y-9562555D02*
X20839229Y-9581603D01*
X20839229Y-9581603D02*
X20820182Y-9591127D01*
X21048753Y-9619698D02*
X21029706Y-9610174D01*
X21029706Y-9610174D02*
X21020182Y-9600650D01*
X21020182Y-9600650D02*
X21010658Y-9581603D01*
X21010658Y-9581603D02*
X21010658Y-9572079D01*
X21010658Y-9572079D02*
X21020182Y-9553031D01*
X21020182Y-9553031D02*
X21029706Y-9543508D01*
X21029706Y-9543508D02*
X21048753Y-9533984D01*
X21048753Y-9533984D02*
X21086849Y-9533984D01*
X21086849Y-9533984D02*
X21105896Y-9543508D01*
X21105896Y-9543508D02*
X21115420Y-9553031D01*
X21115420Y-9553031D02*
X21124944Y-9572079D01*
X21124944Y-9572079D02*
X21124944Y-9581603D01*
X21124944Y-9581603D02*
X21115420Y-9600650D01*
X21115420Y-9600650D02*
X21105896Y-9610174D01*
X21105896Y-9610174D02*
X21086849Y-9619698D01*
X21086849Y-9619698D02*
X21048753Y-9619698D01*
X21048753Y-9619698D02*
X21029706Y-9629222D01*
X21029706Y-9629222D02*
X21020182Y-9638746D01*
X21020182Y-9638746D02*
X21010658Y-9657793D01*
X21010658Y-9657793D02*
X21010658Y-9695889D01*
X21010658Y-9695889D02*
X21020182Y-9714936D01*
X21020182Y-9714936D02*
X21029706Y-9724460D01*
X21029706Y-9724460D02*
X21048753Y-9733984D01*
X21048753Y-9733984D02*
X21086849Y-9733984D01*
X21086849Y-9733984D02*
X21105896Y-9724460D01*
X21105896Y-9724460D02*
X21115420Y-9714936D01*
X21115420Y-9714936D02*
X21124944Y-9695889D01*
X21124944Y-9695889D02*
X21124944Y-9657793D01*
X21124944Y-9657793D02*
X21115420Y-9638746D01*
X21115420Y-9638746D02*
X21105896Y-9629222D01*
X21105896Y-9629222D02*
X21086849Y-9619698D01*
X21201134Y-9533984D02*
X21201134Y-9572079D01*
X21277325Y-9533984D02*
X21277325Y-9572079D01*
X21572563Y-9810174D02*
X21563039Y-9800650D01*
X21563039Y-9800650D02*
X21543991Y-9772079D01*
X21543991Y-9772079D02*
X21534468Y-9753031D01*
X21534468Y-9753031D02*
X21524944Y-9724460D01*
X21524944Y-9724460D02*
X21515420Y-9676841D01*
X21515420Y-9676841D02*
X21515420Y-9638746D01*
X21515420Y-9638746D02*
X21524944Y-9591127D01*
X21524944Y-9591127D02*
X21534468Y-9562555D01*
X21534468Y-9562555D02*
X21543991Y-9543508D01*
X21543991Y-9543508D02*
X21563039Y-9514936D01*
X21563039Y-9514936D02*
X21572563Y-9505412D01*
X21753515Y-9733984D02*
X21639230Y-9733984D01*
X21696372Y-9733984D02*
X21696372Y-9533984D01*
X21696372Y-9533984D02*
X21677325Y-9562555D01*
X21677325Y-9562555D02*
X21658277Y-9581603D01*
X21658277Y-9581603D02*
X21639230Y-9591127D01*
X21991611Y-9733984D02*
X21991611Y-9533984D01*
X22077325Y-9733984D02*
X22077325Y-9629222D01*
X22077325Y-9629222D02*
X22067801Y-9610174D01*
X22067801Y-9610174D02*
X22048753Y-9600650D01*
X22048753Y-9600650D02*
X22020182Y-9600650D01*
X22020182Y-9600650D02*
X22001134Y-9610174D01*
X22001134Y-9610174D02*
X21991611Y-9619698D01*
X22201134Y-9733984D02*
X22182087Y-9724460D01*
X22182087Y-9724460D02*
X22172563Y-9714936D01*
X22172563Y-9714936D02*
X22163039Y-9695889D01*
X22163039Y-9695889D02*
X22163039Y-9638746D01*
X22163039Y-9638746D02*
X22172563Y-9619698D01*
X22172563Y-9619698D02*
X22182087Y-9610174D01*
X22182087Y-9610174D02*
X22201134Y-9600650D01*
X22201134Y-9600650D02*
X22229706Y-9600650D01*
X22229706Y-9600650D02*
X22248753Y-9610174D01*
X22248753Y-9610174D02*
X22258277Y-9619698D01*
X22258277Y-9619698D02*
X22267801Y-9638746D01*
X22267801Y-9638746D02*
X22267801Y-9695889D01*
X22267801Y-9695889D02*
X22258277Y-9714936D01*
X22258277Y-9714936D02*
X22248753Y-9724460D01*
X22248753Y-9724460D02*
X22229706Y-9733984D01*
X22229706Y-9733984D02*
X22201134Y-9733984D01*
X22382087Y-9733984D02*
X22363039Y-9724460D01*
X22363039Y-9724460D02*
X22353515Y-9705412D01*
X22353515Y-9705412D02*
X22353515Y-9533984D01*
X22534468Y-9724460D02*
X22515420Y-9733984D01*
X22515420Y-9733984D02*
X22477325Y-9733984D01*
X22477325Y-9733984D02*
X22458277Y-9724460D01*
X22458277Y-9724460D02*
X22448753Y-9705412D01*
X22448753Y-9705412D02*
X22448753Y-9629222D01*
X22448753Y-9629222D02*
X22458277Y-9610174D01*
X22458277Y-9610174D02*
X22477325Y-9600650D01*
X22477325Y-9600650D02*
X22515420Y-9600650D01*
X22515420Y-9600650D02*
X22534468Y-9610174D01*
X22534468Y-9610174D02*
X22543991Y-9629222D01*
X22543991Y-9629222D02*
X22543991Y-9648270D01*
X22543991Y-9648270D02*
X22448753Y-9667317D01*
X22610658Y-9810174D02*
X22620182Y-9800650D01*
X22620182Y-9800650D02*
X22639230Y-9772079D01*
X22639230Y-9772079D02*
X22648753Y-9753031D01*
X22648753Y-9753031D02*
X22658277Y-9724460D01*
X22658277Y-9724460D02*
X22667801Y-9676841D01*
X22667801Y-9676841D02*
X22667801Y-9638746D01*
X22667801Y-9638746D02*
X22658277Y-9591127D01*
X22658277Y-9591127D02*
X22648753Y-9562555D01*
X22648753Y-9562555D02*
X22639230Y-9543508D01*
X22639230Y-9543508D02*
X22620182Y-9514936D01*
X22620182Y-9514936D02*
X22610658Y-9505412D01*
D12*
X17997500Y-9906500D02*
G75*
G02*
X17957500Y-9906500I-20000J0D01*
G01*
X17957500Y-9906500D02*
G75*
G02*
X17997500Y-9906500I20000J0D01*
G01*
D11*
X18296372Y-9797984D02*
X18315420Y-9797984D01*
X18315420Y-9797984D02*
X18334467Y-9807508D01*
X18334467Y-9807508D02*
X18343991Y-9817031D01*
X18343991Y-9817031D02*
X18353515Y-9836079D01*
X18353515Y-9836079D02*
X18363039Y-9874174D01*
X18363039Y-9874174D02*
X18363039Y-9921793D01*
X18363039Y-9921793D02*
X18353515Y-9959889D01*
X18353515Y-9959889D02*
X18343991Y-9978936D01*
X18343991Y-9978936D02*
X18334467Y-9988460D01*
X18334467Y-9988460D02*
X18315420Y-9997984D01*
X18315420Y-9997984D02*
X18296372Y-9997984D01*
X18296372Y-9997984D02*
X18277324Y-9988460D01*
X18277324Y-9988460D02*
X18267801Y-9978936D01*
X18267801Y-9978936D02*
X18258277Y-9959889D01*
X18258277Y-9959889D02*
X18248753Y-9921793D01*
X18248753Y-9921793D02*
X18248753Y-9874174D01*
X18248753Y-9874174D02*
X18258277Y-9836079D01*
X18258277Y-9836079D02*
X18267801Y-9817031D01*
X18267801Y-9817031D02*
X18277324Y-9807508D01*
X18277324Y-9807508D02*
X18296372Y-9797984D01*
X18448753Y-9978936D02*
X18458277Y-9988460D01*
X18458277Y-9988460D02*
X18448753Y-9997984D01*
X18448753Y-9997984D02*
X18439229Y-9988460D01*
X18439229Y-9988460D02*
X18448753Y-9978936D01*
X18448753Y-9978936D02*
X18448753Y-9997984D01*
X18629705Y-9864650D02*
X18629705Y-9997984D01*
X18582086Y-9788460D02*
X18534467Y-9931317D01*
X18534467Y-9931317D02*
X18658277Y-9931317D01*
X18772563Y-9797984D02*
X18791610Y-9797984D01*
X18791610Y-9797984D02*
X18810658Y-9807508D01*
X18810658Y-9807508D02*
X18820182Y-9817031D01*
X18820182Y-9817031D02*
X18829705Y-9836079D01*
X18829705Y-9836079D02*
X18839229Y-9874174D01*
X18839229Y-9874174D02*
X18839229Y-9921793D01*
X18839229Y-9921793D02*
X18829705Y-9959889D01*
X18829705Y-9959889D02*
X18820182Y-9978936D01*
X18820182Y-9978936D02*
X18810658Y-9988460D01*
X18810658Y-9988460D02*
X18791610Y-9997984D01*
X18791610Y-9997984D02*
X18772563Y-9997984D01*
X18772563Y-9997984D02*
X18753515Y-9988460D01*
X18753515Y-9988460D02*
X18743991Y-9978936D01*
X18743991Y-9978936D02*
X18734467Y-9959889D01*
X18734467Y-9959889D02*
X18724944Y-9921793D01*
X18724944Y-9921793D02*
X18724944Y-9874174D01*
X18724944Y-9874174D02*
X18734467Y-9836079D01*
X18734467Y-9836079D02*
X18743991Y-9817031D01*
X18743991Y-9817031D02*
X18753515Y-9807508D01*
X18753515Y-9807508D02*
X18772563Y-9797984D01*
X18963039Y-9797984D02*
X18982086Y-9797984D01*
X18982086Y-9797984D02*
X19001134Y-9807508D01*
X19001134Y-9807508D02*
X19010658Y-9817031D01*
X19010658Y-9817031D02*
X19020182Y-9836079D01*
X19020182Y-9836079D02*
X19029705Y-9874174D01*
X19029705Y-9874174D02*
X19029705Y-9921793D01*
X19029705Y-9921793D02*
X19020182Y-9959889D01*
X19020182Y-9959889D02*
X19010658Y-9978936D01*
X19010658Y-9978936D02*
X19001134Y-9988460D01*
X19001134Y-9988460D02*
X18982086Y-9997984D01*
X18982086Y-9997984D02*
X18963039Y-9997984D01*
X18963039Y-9997984D02*
X18943991Y-9988460D01*
X18943991Y-9988460D02*
X18934467Y-9978936D01*
X18934467Y-9978936D02*
X18924944Y-9959889D01*
X18924944Y-9959889D02*
X18915420Y-9921793D01*
X18915420Y-9921793D02*
X18915420Y-9874174D01*
X18915420Y-9874174D02*
X18924944Y-9836079D01*
X18924944Y-9836079D02*
X18934467Y-9817031D01*
X18934467Y-9817031D02*
X18943991Y-9807508D01*
X18943991Y-9807508D02*
X18963039Y-9797984D01*
X19115420Y-9997984D02*
X19115420Y-9864650D01*
X19115420Y-9883698D02*
X19124944Y-9874174D01*
X19124944Y-9874174D02*
X19143991Y-9864650D01*
X19143991Y-9864650D02*
X19172563Y-9864650D01*
X19172563Y-9864650D02*
X19191610Y-9874174D01*
X19191610Y-9874174D02*
X19201134Y-9893222D01*
X19201134Y-9893222D02*
X19201134Y-9997984D01*
X19201134Y-9893222D02*
X19210658Y-9874174D01*
X19210658Y-9874174D02*
X19229705Y-9864650D01*
X19229705Y-9864650D02*
X19258277Y-9864650D01*
X19258277Y-9864650D02*
X19277325Y-9874174D01*
X19277325Y-9874174D02*
X19286848Y-9893222D01*
X19286848Y-9893222D02*
X19286848Y-9997984D01*
X19382086Y-9997984D02*
X19382086Y-9864650D01*
X19382086Y-9883698D02*
X19391610Y-9874174D01*
X19391610Y-9874174D02*
X19410658Y-9864650D01*
X19410658Y-9864650D02*
X19439229Y-9864650D01*
X19439229Y-9864650D02*
X19458277Y-9874174D01*
X19458277Y-9874174D02*
X19467801Y-9893222D01*
X19467801Y-9893222D02*
X19467801Y-9997984D01*
X19467801Y-9893222D02*
X19477325Y-9874174D01*
X19477325Y-9874174D02*
X19496372Y-9864650D01*
X19496372Y-9864650D02*
X19524944Y-9864650D01*
X19524944Y-9864650D02*
X19543991Y-9874174D01*
X19543991Y-9874174D02*
X19553515Y-9893222D01*
X19553515Y-9893222D02*
X19553515Y-9997984D01*
X19943991Y-9788460D02*
X19772563Y-10045603D01*
X20201134Y-9797984D02*
X20220182Y-9797984D01*
X20220182Y-9797984D02*
X20239229Y-9807508D01*
X20239229Y-9807508D02*
X20248753Y-9817031D01*
X20248753Y-9817031D02*
X20258277Y-9836079D01*
X20258277Y-9836079D02*
X20267801Y-9874174D01*
X20267801Y-9874174D02*
X20267801Y-9921793D01*
X20267801Y-9921793D02*
X20258277Y-9959889D01*
X20258277Y-9959889D02*
X20248753Y-9978936D01*
X20248753Y-9978936D02*
X20239229Y-9988460D01*
X20239229Y-9988460D02*
X20220182Y-9997984D01*
X20220182Y-9997984D02*
X20201134Y-9997984D01*
X20201134Y-9997984D02*
X20182087Y-9988460D01*
X20182087Y-9988460D02*
X20172563Y-9978936D01*
X20172563Y-9978936D02*
X20163039Y-9959889D01*
X20163039Y-9959889D02*
X20153515Y-9921793D01*
X20153515Y-9921793D02*
X20153515Y-9874174D01*
X20153515Y-9874174D02*
X20163039Y-9836079D01*
X20163039Y-9836079D02*
X20172563Y-9817031D01*
X20172563Y-9817031D02*
X20182087Y-9807508D01*
X20182087Y-9807508D02*
X20201134Y-9797984D01*
X20353515Y-9978936D02*
X20363039Y-9988460D01*
X20363039Y-9988460D02*
X20353515Y-9997984D01*
X20353515Y-9997984D02*
X20343991Y-9988460D01*
X20343991Y-9988460D02*
X20353515Y-9978936D01*
X20353515Y-9978936D02*
X20353515Y-9997984D01*
X20486848Y-9797984D02*
X20505896Y-9797984D01*
X20505896Y-9797984D02*
X20524944Y-9807508D01*
X20524944Y-9807508D02*
X20534468Y-9817031D01*
X20534468Y-9817031D02*
X20543991Y-9836079D01*
X20543991Y-9836079D02*
X20553515Y-9874174D01*
X20553515Y-9874174D02*
X20553515Y-9921793D01*
X20553515Y-9921793D02*
X20543991Y-9959889D01*
X20543991Y-9959889D02*
X20534468Y-9978936D01*
X20534468Y-9978936D02*
X20524944Y-9988460D01*
X20524944Y-9988460D02*
X20505896Y-9997984D01*
X20505896Y-9997984D02*
X20486848Y-9997984D01*
X20486848Y-9997984D02*
X20467801Y-9988460D01*
X20467801Y-9988460D02*
X20458277Y-9978936D01*
X20458277Y-9978936D02*
X20448753Y-9959889D01*
X20448753Y-9959889D02*
X20439229Y-9921793D01*
X20439229Y-9921793D02*
X20439229Y-9874174D01*
X20439229Y-9874174D02*
X20448753Y-9836079D01*
X20448753Y-9836079D02*
X20458277Y-9817031D01*
X20458277Y-9817031D02*
X20467801Y-9807508D01*
X20467801Y-9807508D02*
X20486848Y-9797984D01*
X20743991Y-9997984D02*
X20629706Y-9997984D01*
X20686848Y-9997984D02*
X20686848Y-9797984D01*
X20686848Y-9797984D02*
X20667801Y-9826555D01*
X20667801Y-9826555D02*
X20648753Y-9845603D01*
X20648753Y-9845603D02*
X20629706Y-9855127D01*
X20924944Y-9797984D02*
X20829706Y-9797984D01*
X20829706Y-9797984D02*
X20820182Y-9893222D01*
X20820182Y-9893222D02*
X20829706Y-9883698D01*
X20829706Y-9883698D02*
X20848753Y-9874174D01*
X20848753Y-9874174D02*
X20896372Y-9874174D01*
X20896372Y-9874174D02*
X20915420Y-9883698D01*
X20915420Y-9883698D02*
X20924944Y-9893222D01*
X20924944Y-9893222D02*
X20934468Y-9912270D01*
X20934468Y-9912270D02*
X20934468Y-9959889D01*
X20934468Y-9959889D02*
X20924944Y-9978936D01*
X20924944Y-9978936D02*
X20915420Y-9988460D01*
X20915420Y-9988460D02*
X20896372Y-9997984D01*
X20896372Y-9997984D02*
X20848753Y-9997984D01*
X20848753Y-9997984D02*
X20829706Y-9988460D01*
X20829706Y-9988460D02*
X20820182Y-9978936D01*
X21001134Y-9797984D02*
X21134468Y-9797984D01*
X21134468Y-9797984D02*
X21048753Y-9997984D01*
X21201134Y-9797984D02*
X21201134Y-9836079D01*
X21277325Y-9797984D02*
X21277325Y-9836079D01*
X21572563Y-10074174D02*
X21563039Y-10064650D01*
X21563039Y-10064650D02*
X21543991Y-10036079D01*
X21543991Y-10036079D02*
X21534468Y-10017031D01*
X21534468Y-10017031D02*
X21524944Y-9988460D01*
X21524944Y-9988460D02*
X21515420Y-9940841D01*
X21515420Y-9940841D02*
X21515420Y-9902746D01*
X21515420Y-9902746D02*
X21524944Y-9855127D01*
X21524944Y-9855127D02*
X21534468Y-9826555D01*
X21534468Y-9826555D02*
X21543991Y-9807508D01*
X21543991Y-9807508D02*
X21563039Y-9778936D01*
X21563039Y-9778936D02*
X21572563Y-9769412D01*
X21629706Y-9797984D02*
X21753515Y-9797984D01*
X21753515Y-9797984D02*
X21686849Y-9874174D01*
X21686849Y-9874174D02*
X21715420Y-9874174D01*
X21715420Y-9874174D02*
X21734468Y-9883698D01*
X21734468Y-9883698D02*
X21743991Y-9893222D01*
X21743991Y-9893222D02*
X21753515Y-9912270D01*
X21753515Y-9912270D02*
X21753515Y-9959889D01*
X21753515Y-9959889D02*
X21743991Y-9978936D01*
X21743991Y-9978936D02*
X21734468Y-9988460D01*
X21734468Y-9988460D02*
X21715420Y-9997984D01*
X21715420Y-9997984D02*
X21658277Y-9997984D01*
X21658277Y-9997984D02*
X21639230Y-9988460D01*
X21639230Y-9988460D02*
X21629706Y-9978936D01*
X21829706Y-9817031D02*
X21839230Y-9807508D01*
X21839230Y-9807508D02*
X21858277Y-9797984D01*
X21858277Y-9797984D02*
X21905896Y-9797984D01*
X21905896Y-9797984D02*
X21924944Y-9807508D01*
X21924944Y-9807508D02*
X21934468Y-9817031D01*
X21934468Y-9817031D02*
X21943991Y-9836079D01*
X21943991Y-9836079D02*
X21943991Y-9855127D01*
X21943991Y-9855127D02*
X21934468Y-9883698D01*
X21934468Y-9883698D02*
X21820182Y-9997984D01*
X21820182Y-9997984D02*
X21943991Y-9997984D01*
X22182087Y-9997984D02*
X22182087Y-9797984D01*
X22267801Y-9997984D02*
X22267801Y-9893222D01*
X22267801Y-9893222D02*
X22258277Y-9874174D01*
X22258277Y-9874174D02*
X22239230Y-9864650D01*
X22239230Y-9864650D02*
X22210658Y-9864650D01*
X22210658Y-9864650D02*
X22191611Y-9874174D01*
X22191611Y-9874174D02*
X22182087Y-9883698D01*
X22391610Y-9997984D02*
X22372563Y-9988460D01*
X22372563Y-9988460D02*
X22363039Y-9978936D01*
X22363039Y-9978936D02*
X22353515Y-9959889D01*
X22353515Y-9959889D02*
X22353515Y-9902746D01*
X22353515Y-9902746D02*
X22363039Y-9883698D01*
X22363039Y-9883698D02*
X22372563Y-9874174D01*
X22372563Y-9874174D02*
X22391610Y-9864650D01*
X22391610Y-9864650D02*
X22420182Y-9864650D01*
X22420182Y-9864650D02*
X22439230Y-9874174D01*
X22439230Y-9874174D02*
X22448753Y-9883698D01*
X22448753Y-9883698D02*
X22458277Y-9902746D01*
X22458277Y-9902746D02*
X22458277Y-9959889D01*
X22458277Y-9959889D02*
X22448753Y-9978936D01*
X22448753Y-9978936D02*
X22439230Y-9988460D01*
X22439230Y-9988460D02*
X22420182Y-9997984D01*
X22420182Y-9997984D02*
X22391610Y-9997984D01*
X22572563Y-9997984D02*
X22553515Y-9988460D01*
X22553515Y-9988460D02*
X22543991Y-9969412D01*
X22543991Y-9969412D02*
X22543991Y-9797984D01*
X22724944Y-9988460D02*
X22705896Y-9997984D01*
X22705896Y-9997984D02*
X22667801Y-9997984D01*
X22667801Y-9997984D02*
X22648753Y-9988460D01*
X22648753Y-9988460D02*
X22639230Y-9969412D01*
X22639230Y-9969412D02*
X22639230Y-9893222D01*
X22639230Y-9893222D02*
X22648753Y-9874174D01*
X22648753Y-9874174D02*
X22667801Y-9864650D01*
X22667801Y-9864650D02*
X22705896Y-9864650D01*
X22705896Y-9864650D02*
X22724944Y-9874174D01*
X22724944Y-9874174D02*
X22734468Y-9893222D01*
X22734468Y-9893222D02*
X22734468Y-9912270D01*
X22734468Y-9912270D02*
X22639230Y-9931317D01*
X22810658Y-9988460D02*
X22829706Y-9997984D01*
X22829706Y-9997984D02*
X22867801Y-9997984D01*
X22867801Y-9997984D02*
X22886849Y-9988460D01*
X22886849Y-9988460D02*
X22896372Y-9969412D01*
X22896372Y-9969412D02*
X22896372Y-9959889D01*
X22896372Y-9959889D02*
X22886849Y-9940841D01*
X22886849Y-9940841D02*
X22867801Y-9931317D01*
X22867801Y-9931317D02*
X22839230Y-9931317D01*
X22839230Y-9931317D02*
X22820182Y-9921793D01*
X22820182Y-9921793D02*
X22810658Y-9902746D01*
X22810658Y-9902746D02*
X22810658Y-9893222D01*
X22810658Y-9893222D02*
X22820182Y-9874174D01*
X22820182Y-9874174D02*
X22839230Y-9864650D01*
X22839230Y-9864650D02*
X22867801Y-9864650D01*
X22867801Y-9864650D02*
X22886849Y-9874174D01*
X22963039Y-10074174D02*
X22972563Y-10064650D01*
X22972563Y-10064650D02*
X22991611Y-10036079D01*
X22991611Y-10036079D02*
X23001134Y-10017031D01*
X23001134Y-10017031D02*
X23010658Y-9988460D01*
X23010658Y-9988460D02*
X23020182Y-9940841D01*
X23020182Y-9940841D02*
X23020182Y-9902746D01*
X23020182Y-9902746D02*
X23010658Y-9855127D01*
X23010658Y-9855127D02*
X23001134Y-9826555D01*
X23001134Y-9826555D02*
X22991611Y-9807508D01*
X22991611Y-9807508D02*
X22972563Y-9778936D01*
X22972563Y-9778936D02*
X22963039Y-9769412D01*
D12*
X17961800Y-10134800D02*
X17961800Y-10206200D01*
X17926100Y-10170500D02*
X17997500Y-10170500D01*
D11*
X18296372Y-10061984D02*
X18315420Y-10061984D01*
X18315420Y-10061984D02*
X18334467Y-10071508D01*
X18334467Y-10071508D02*
X18343991Y-10081031D01*
X18343991Y-10081031D02*
X18353515Y-10100079D01*
X18353515Y-10100079D02*
X18363039Y-10138174D01*
X18363039Y-10138174D02*
X18363039Y-10185793D01*
X18363039Y-10185793D02*
X18353515Y-10223889D01*
X18353515Y-10223889D02*
X18343991Y-10242936D01*
X18343991Y-10242936D02*
X18334467Y-10252460D01*
X18334467Y-10252460D02*
X18315420Y-10261984D01*
X18315420Y-10261984D02*
X18296372Y-10261984D01*
X18296372Y-10261984D02*
X18277324Y-10252460D01*
X18277324Y-10252460D02*
X18267801Y-10242936D01*
X18267801Y-10242936D02*
X18258277Y-10223889D01*
X18258277Y-10223889D02*
X18248753Y-10185793D01*
X18248753Y-10185793D02*
X18248753Y-10138174D01*
X18248753Y-10138174D02*
X18258277Y-10100079D01*
X18258277Y-10100079D02*
X18267801Y-10081031D01*
X18267801Y-10081031D02*
X18277324Y-10071508D01*
X18277324Y-10071508D02*
X18296372Y-10061984D01*
X18448753Y-10242936D02*
X18458277Y-10252460D01*
X18458277Y-10252460D02*
X18448753Y-10261984D01*
X18448753Y-10261984D02*
X18439229Y-10252460D01*
X18439229Y-10252460D02*
X18448753Y-10242936D01*
X18448753Y-10242936D02*
X18448753Y-10261984D01*
X18524944Y-10061984D02*
X18658277Y-10061984D01*
X18658277Y-10061984D02*
X18572563Y-10261984D01*
X18839229Y-10261984D02*
X18724944Y-10261984D01*
X18782086Y-10261984D02*
X18782086Y-10061984D01*
X18782086Y-10061984D02*
X18763039Y-10090555D01*
X18763039Y-10090555D02*
X18743991Y-10109603D01*
X18743991Y-10109603D02*
X18724944Y-10119127D01*
X19010658Y-10128650D02*
X19010658Y-10261984D01*
X18963039Y-10052460D02*
X18915420Y-10195317D01*
X18915420Y-10195317D02*
X19039229Y-10195317D01*
X19115420Y-10261984D02*
X19115420Y-10128650D01*
X19115420Y-10147698D02*
X19124944Y-10138174D01*
X19124944Y-10138174D02*
X19143991Y-10128650D01*
X19143991Y-10128650D02*
X19172563Y-10128650D01*
X19172563Y-10128650D02*
X19191610Y-10138174D01*
X19191610Y-10138174D02*
X19201134Y-10157222D01*
X19201134Y-10157222D02*
X19201134Y-10261984D01*
X19201134Y-10157222D02*
X19210658Y-10138174D01*
X19210658Y-10138174D02*
X19229705Y-10128650D01*
X19229705Y-10128650D02*
X19258277Y-10128650D01*
X19258277Y-10128650D02*
X19277325Y-10138174D01*
X19277325Y-10138174D02*
X19286848Y-10157222D01*
X19286848Y-10157222D02*
X19286848Y-10261984D01*
X19382086Y-10261984D02*
X19382086Y-10128650D01*
X19382086Y-10147698D02*
X19391610Y-10138174D01*
X19391610Y-10138174D02*
X19410658Y-10128650D01*
X19410658Y-10128650D02*
X19439229Y-10128650D01*
X19439229Y-10128650D02*
X19458277Y-10138174D01*
X19458277Y-10138174D02*
X19467801Y-10157222D01*
X19467801Y-10157222D02*
X19467801Y-10261984D01*
X19467801Y-10157222D02*
X19477325Y-10138174D01*
X19477325Y-10138174D02*
X19496372Y-10128650D01*
X19496372Y-10128650D02*
X19524944Y-10128650D01*
X19524944Y-10128650D02*
X19543991Y-10138174D01*
X19543991Y-10138174D02*
X19553515Y-10157222D01*
X19553515Y-10157222D02*
X19553515Y-10261984D01*
X19943991Y-10052460D02*
X19772563Y-10309603D01*
X20201134Y-10061984D02*
X20220182Y-10061984D01*
X20220182Y-10061984D02*
X20239229Y-10071508D01*
X20239229Y-10071508D02*
X20248753Y-10081031D01*
X20248753Y-10081031D02*
X20258277Y-10100079D01*
X20258277Y-10100079D02*
X20267801Y-10138174D01*
X20267801Y-10138174D02*
X20267801Y-10185793D01*
X20267801Y-10185793D02*
X20258277Y-10223889D01*
X20258277Y-10223889D02*
X20248753Y-10242936D01*
X20248753Y-10242936D02*
X20239229Y-10252460D01*
X20239229Y-10252460D02*
X20220182Y-10261984D01*
X20220182Y-10261984D02*
X20201134Y-10261984D01*
X20201134Y-10261984D02*
X20182087Y-10252460D01*
X20182087Y-10252460D02*
X20172563Y-10242936D01*
X20172563Y-10242936D02*
X20163039Y-10223889D01*
X20163039Y-10223889D02*
X20153515Y-10185793D01*
X20153515Y-10185793D02*
X20153515Y-10138174D01*
X20153515Y-10138174D02*
X20163039Y-10100079D01*
X20163039Y-10100079D02*
X20172563Y-10081031D01*
X20172563Y-10081031D02*
X20182087Y-10071508D01*
X20182087Y-10071508D02*
X20201134Y-10061984D01*
X20353515Y-10242936D02*
X20363039Y-10252460D01*
X20363039Y-10252460D02*
X20353515Y-10261984D01*
X20353515Y-10261984D02*
X20343991Y-10252460D01*
X20343991Y-10252460D02*
X20353515Y-10242936D01*
X20353515Y-10242936D02*
X20353515Y-10261984D01*
X20486848Y-10061984D02*
X20505896Y-10061984D01*
X20505896Y-10061984D02*
X20524944Y-10071508D01*
X20524944Y-10071508D02*
X20534468Y-10081031D01*
X20534468Y-10081031D02*
X20543991Y-10100079D01*
X20543991Y-10100079D02*
X20553515Y-10138174D01*
X20553515Y-10138174D02*
X20553515Y-10185793D01*
X20553515Y-10185793D02*
X20543991Y-10223889D01*
X20543991Y-10223889D02*
X20534468Y-10242936D01*
X20534468Y-10242936D02*
X20524944Y-10252460D01*
X20524944Y-10252460D02*
X20505896Y-10261984D01*
X20505896Y-10261984D02*
X20486848Y-10261984D01*
X20486848Y-10261984D02*
X20467801Y-10252460D01*
X20467801Y-10252460D02*
X20458277Y-10242936D01*
X20458277Y-10242936D02*
X20448753Y-10223889D01*
X20448753Y-10223889D02*
X20439229Y-10185793D01*
X20439229Y-10185793D02*
X20439229Y-10138174D01*
X20439229Y-10138174D02*
X20448753Y-10100079D01*
X20448753Y-10100079D02*
X20458277Y-10081031D01*
X20458277Y-10081031D02*
X20467801Y-10071508D01*
X20467801Y-10071508D02*
X20486848Y-10061984D01*
X20629706Y-10081031D02*
X20639229Y-10071508D01*
X20639229Y-10071508D02*
X20658277Y-10061984D01*
X20658277Y-10061984D02*
X20705896Y-10061984D01*
X20705896Y-10061984D02*
X20724944Y-10071508D01*
X20724944Y-10071508D02*
X20734468Y-10081031D01*
X20734468Y-10081031D02*
X20743991Y-10100079D01*
X20743991Y-10100079D02*
X20743991Y-10119127D01*
X20743991Y-10119127D02*
X20734468Y-10147698D01*
X20734468Y-10147698D02*
X20620182Y-10261984D01*
X20620182Y-10261984D02*
X20743991Y-10261984D01*
X20858277Y-10147698D02*
X20839229Y-10138174D01*
X20839229Y-10138174D02*
X20829706Y-10128650D01*
X20829706Y-10128650D02*
X20820182Y-10109603D01*
X20820182Y-10109603D02*
X20820182Y-10100079D01*
X20820182Y-10100079D02*
X20829706Y-10081031D01*
X20829706Y-10081031D02*
X20839229Y-10071508D01*
X20839229Y-10071508D02*
X20858277Y-10061984D01*
X20858277Y-10061984D02*
X20896372Y-10061984D01*
X20896372Y-10061984D02*
X20915420Y-10071508D01*
X20915420Y-10071508D02*
X20924944Y-10081031D01*
X20924944Y-10081031D02*
X20934468Y-10100079D01*
X20934468Y-10100079D02*
X20934468Y-10109603D01*
X20934468Y-10109603D02*
X20924944Y-10128650D01*
X20924944Y-10128650D02*
X20915420Y-10138174D01*
X20915420Y-10138174D02*
X20896372Y-10147698D01*
X20896372Y-10147698D02*
X20858277Y-10147698D01*
X20858277Y-10147698D02*
X20839229Y-10157222D01*
X20839229Y-10157222D02*
X20829706Y-10166746D01*
X20829706Y-10166746D02*
X20820182Y-10185793D01*
X20820182Y-10185793D02*
X20820182Y-10223889D01*
X20820182Y-10223889D02*
X20829706Y-10242936D01*
X20829706Y-10242936D02*
X20839229Y-10252460D01*
X20839229Y-10252460D02*
X20858277Y-10261984D01*
X20858277Y-10261984D02*
X20896372Y-10261984D01*
X20896372Y-10261984D02*
X20915420Y-10252460D01*
X20915420Y-10252460D02*
X20924944Y-10242936D01*
X20924944Y-10242936D02*
X20934468Y-10223889D01*
X20934468Y-10223889D02*
X20934468Y-10185793D01*
X20934468Y-10185793D02*
X20924944Y-10166746D01*
X20924944Y-10166746D02*
X20915420Y-10157222D01*
X20915420Y-10157222D02*
X20896372Y-10147698D01*
X21124944Y-10261984D02*
X21010658Y-10261984D01*
X21067801Y-10261984D02*
X21067801Y-10061984D01*
X21067801Y-10061984D02*
X21048753Y-10090555D01*
X21048753Y-10090555D02*
X21029706Y-10109603D01*
X21029706Y-10109603D02*
X21010658Y-10119127D01*
X21201134Y-10061984D02*
X21201134Y-10100079D01*
X21277325Y-10061984D02*
X21277325Y-10100079D01*
X21572563Y-10338174D02*
X21563039Y-10328650D01*
X21563039Y-10328650D02*
X21543991Y-10300079D01*
X21543991Y-10300079D02*
X21534468Y-10281031D01*
X21534468Y-10281031D02*
X21524944Y-10252460D01*
X21524944Y-10252460D02*
X21515420Y-10204841D01*
X21515420Y-10204841D02*
X21515420Y-10166746D01*
X21515420Y-10166746D02*
X21524944Y-10119127D01*
X21524944Y-10119127D02*
X21534468Y-10090555D01*
X21534468Y-10090555D02*
X21543991Y-10071508D01*
X21543991Y-10071508D02*
X21563039Y-10042936D01*
X21563039Y-10042936D02*
X21572563Y-10033412D01*
X21658277Y-10261984D02*
X21696372Y-10261984D01*
X21696372Y-10261984D02*
X21715420Y-10252460D01*
X21715420Y-10252460D02*
X21724944Y-10242936D01*
X21724944Y-10242936D02*
X21743991Y-10214365D01*
X21743991Y-10214365D02*
X21753515Y-10176270D01*
X21753515Y-10176270D02*
X21753515Y-10100079D01*
X21753515Y-10100079D02*
X21743991Y-10081031D01*
X21743991Y-10081031D02*
X21734468Y-10071508D01*
X21734468Y-10071508D02*
X21715420Y-10061984D01*
X21715420Y-10061984D02*
X21677325Y-10061984D01*
X21677325Y-10061984D02*
X21658277Y-10071508D01*
X21658277Y-10071508D02*
X21648753Y-10081031D01*
X21648753Y-10081031D02*
X21639230Y-10100079D01*
X21639230Y-10100079D02*
X21639230Y-10147698D01*
X21639230Y-10147698D02*
X21648753Y-10166746D01*
X21648753Y-10166746D02*
X21658277Y-10176270D01*
X21658277Y-10176270D02*
X21677325Y-10185793D01*
X21677325Y-10185793D02*
X21715420Y-10185793D01*
X21715420Y-10185793D02*
X21734468Y-10176270D01*
X21734468Y-10176270D02*
X21743991Y-10166746D01*
X21743991Y-10166746D02*
X21753515Y-10147698D01*
X21991611Y-10261984D02*
X21991611Y-10061984D01*
X22077325Y-10261984D02*
X22077325Y-10157222D01*
X22077325Y-10157222D02*
X22067801Y-10138174D01*
X22067801Y-10138174D02*
X22048753Y-10128650D01*
X22048753Y-10128650D02*
X22020182Y-10128650D01*
X22020182Y-10128650D02*
X22001134Y-10138174D01*
X22001134Y-10138174D02*
X21991611Y-10147698D01*
X22201134Y-10261984D02*
X22182087Y-10252460D01*
X22182087Y-10252460D02*
X22172563Y-10242936D01*
X22172563Y-10242936D02*
X22163039Y-10223889D01*
X22163039Y-10223889D02*
X22163039Y-10166746D01*
X22163039Y-10166746D02*
X22172563Y-10147698D01*
X22172563Y-10147698D02*
X22182087Y-10138174D01*
X22182087Y-10138174D02*
X22201134Y-10128650D01*
X22201134Y-10128650D02*
X22229706Y-10128650D01*
X22229706Y-10128650D02*
X22248753Y-10138174D01*
X22248753Y-10138174D02*
X22258277Y-10147698D01*
X22258277Y-10147698D02*
X22267801Y-10166746D01*
X22267801Y-10166746D02*
X22267801Y-10223889D01*
X22267801Y-10223889D02*
X22258277Y-10242936D01*
X22258277Y-10242936D02*
X22248753Y-10252460D01*
X22248753Y-10252460D02*
X22229706Y-10261984D01*
X22229706Y-10261984D02*
X22201134Y-10261984D01*
X22382087Y-10261984D02*
X22363039Y-10252460D01*
X22363039Y-10252460D02*
X22353515Y-10233412D01*
X22353515Y-10233412D02*
X22353515Y-10061984D01*
X22534468Y-10252460D02*
X22515420Y-10261984D01*
X22515420Y-10261984D02*
X22477325Y-10261984D01*
X22477325Y-10261984D02*
X22458277Y-10252460D01*
X22458277Y-10252460D02*
X22448753Y-10233412D01*
X22448753Y-10233412D02*
X22448753Y-10157222D01*
X22448753Y-10157222D02*
X22458277Y-10138174D01*
X22458277Y-10138174D02*
X22477325Y-10128650D01*
X22477325Y-10128650D02*
X22515420Y-10128650D01*
X22515420Y-10128650D02*
X22534468Y-10138174D01*
X22534468Y-10138174D02*
X22543991Y-10157222D01*
X22543991Y-10157222D02*
X22543991Y-10176270D01*
X22543991Y-10176270D02*
X22448753Y-10195317D01*
X22620182Y-10252460D02*
X22639230Y-10261984D01*
X22639230Y-10261984D02*
X22677325Y-10261984D01*
X22677325Y-10261984D02*
X22696372Y-10252460D01*
X22696372Y-10252460D02*
X22705896Y-10233412D01*
X22705896Y-10233412D02*
X22705896Y-10223889D01*
X22705896Y-10223889D02*
X22696372Y-10204841D01*
X22696372Y-10204841D02*
X22677325Y-10195317D01*
X22677325Y-10195317D02*
X22648753Y-10195317D01*
X22648753Y-10195317D02*
X22629706Y-10185793D01*
X22629706Y-10185793D02*
X22620182Y-10166746D01*
X22620182Y-10166746D02*
X22620182Y-10157222D01*
X22620182Y-10157222D02*
X22629706Y-10138174D01*
X22629706Y-10138174D02*
X22648753Y-10128650D01*
X22648753Y-10128650D02*
X22677325Y-10128650D01*
X22677325Y-10128650D02*
X22696372Y-10138174D01*
X22772563Y-10338174D02*
X22782087Y-10328650D01*
X22782087Y-10328650D02*
X22801134Y-10300079D01*
X22801134Y-10300079D02*
X22810658Y-10281031D01*
X22810658Y-10281031D02*
X22820182Y-10252460D01*
X22820182Y-10252460D02*
X22829706Y-10204841D01*
X22829706Y-10204841D02*
X22829706Y-10166746D01*
X22829706Y-10166746D02*
X22820182Y-10119127D01*
X22820182Y-10119127D02*
X22810658Y-10090555D01*
X22810658Y-10090555D02*
X22801134Y-10071508D01*
X22801134Y-10071508D02*
X22782087Y-10042936D01*
X22782087Y-10042936D02*
X22772563Y-10033412D01*
D12*
X17985785Y-10462785D02*
X17985785Y-10406216D01*
X17929216Y-10406216D01*
X17929216Y-10462785D01*
X17985785Y-10462785D01*
D11*
X18296372Y-10325984D02*
X18315420Y-10325984D01*
X18315420Y-10325984D02*
X18334467Y-10335508D01*
X18334467Y-10335508D02*
X18343991Y-10345031D01*
X18343991Y-10345031D02*
X18353515Y-10364079D01*
X18353515Y-10364079D02*
X18363039Y-10402174D01*
X18363039Y-10402174D02*
X18363039Y-10449793D01*
X18363039Y-10449793D02*
X18353515Y-10487889D01*
X18353515Y-10487889D02*
X18343991Y-10506936D01*
X18343991Y-10506936D02*
X18334467Y-10516460D01*
X18334467Y-10516460D02*
X18315420Y-10525984D01*
X18315420Y-10525984D02*
X18296372Y-10525984D01*
X18296372Y-10525984D02*
X18277324Y-10516460D01*
X18277324Y-10516460D02*
X18267801Y-10506936D01*
X18267801Y-10506936D02*
X18258277Y-10487889D01*
X18258277Y-10487889D02*
X18248753Y-10449793D01*
X18248753Y-10449793D02*
X18248753Y-10402174D01*
X18248753Y-10402174D02*
X18258277Y-10364079D01*
X18258277Y-10364079D02*
X18267801Y-10345031D01*
X18267801Y-10345031D02*
X18277324Y-10335508D01*
X18277324Y-10335508D02*
X18296372Y-10325984D01*
X18448753Y-10506936D02*
X18458277Y-10516460D01*
X18458277Y-10516460D02*
X18448753Y-10525984D01*
X18448753Y-10525984D02*
X18439229Y-10516460D01*
X18439229Y-10516460D02*
X18448753Y-10506936D01*
X18448753Y-10506936D02*
X18448753Y-10525984D01*
X18572563Y-10411698D02*
X18553515Y-10402174D01*
X18553515Y-10402174D02*
X18543991Y-10392650D01*
X18543991Y-10392650D02*
X18534467Y-10373603D01*
X18534467Y-10373603D02*
X18534467Y-10364079D01*
X18534467Y-10364079D02*
X18543991Y-10345031D01*
X18543991Y-10345031D02*
X18553515Y-10335508D01*
X18553515Y-10335508D02*
X18572563Y-10325984D01*
X18572563Y-10325984D02*
X18610658Y-10325984D01*
X18610658Y-10325984D02*
X18629705Y-10335508D01*
X18629705Y-10335508D02*
X18639229Y-10345031D01*
X18639229Y-10345031D02*
X18648753Y-10364079D01*
X18648753Y-10364079D02*
X18648753Y-10373603D01*
X18648753Y-10373603D02*
X18639229Y-10392650D01*
X18639229Y-10392650D02*
X18629705Y-10402174D01*
X18629705Y-10402174D02*
X18610658Y-10411698D01*
X18610658Y-10411698D02*
X18572563Y-10411698D01*
X18572563Y-10411698D02*
X18553515Y-10421222D01*
X18553515Y-10421222D02*
X18543991Y-10430746D01*
X18543991Y-10430746D02*
X18534467Y-10449793D01*
X18534467Y-10449793D02*
X18534467Y-10487889D01*
X18534467Y-10487889D02*
X18543991Y-10506936D01*
X18543991Y-10506936D02*
X18553515Y-10516460D01*
X18553515Y-10516460D02*
X18572563Y-10525984D01*
X18572563Y-10525984D02*
X18610658Y-10525984D01*
X18610658Y-10525984D02*
X18629705Y-10516460D01*
X18629705Y-10516460D02*
X18639229Y-10506936D01*
X18639229Y-10506936D02*
X18648753Y-10487889D01*
X18648753Y-10487889D02*
X18648753Y-10449793D01*
X18648753Y-10449793D02*
X18639229Y-10430746D01*
X18639229Y-10430746D02*
X18629705Y-10421222D01*
X18629705Y-10421222D02*
X18610658Y-10411698D01*
X18772563Y-10325984D02*
X18791610Y-10325984D01*
X18791610Y-10325984D02*
X18810658Y-10335508D01*
X18810658Y-10335508D02*
X18820182Y-10345031D01*
X18820182Y-10345031D02*
X18829705Y-10364079D01*
X18829705Y-10364079D02*
X18839229Y-10402174D01*
X18839229Y-10402174D02*
X18839229Y-10449793D01*
X18839229Y-10449793D02*
X18829705Y-10487889D01*
X18829705Y-10487889D02*
X18820182Y-10506936D01*
X18820182Y-10506936D02*
X18810658Y-10516460D01*
X18810658Y-10516460D02*
X18791610Y-10525984D01*
X18791610Y-10525984D02*
X18772563Y-10525984D01*
X18772563Y-10525984D02*
X18753515Y-10516460D01*
X18753515Y-10516460D02*
X18743991Y-10506936D01*
X18743991Y-10506936D02*
X18734467Y-10487889D01*
X18734467Y-10487889D02*
X18724944Y-10449793D01*
X18724944Y-10449793D02*
X18724944Y-10402174D01*
X18724944Y-10402174D02*
X18734467Y-10364079D01*
X18734467Y-10364079D02*
X18743991Y-10345031D01*
X18743991Y-10345031D02*
X18753515Y-10335508D01*
X18753515Y-10335508D02*
X18772563Y-10325984D01*
X18963039Y-10325984D02*
X18982086Y-10325984D01*
X18982086Y-10325984D02*
X19001134Y-10335508D01*
X19001134Y-10335508D02*
X19010658Y-10345031D01*
X19010658Y-10345031D02*
X19020182Y-10364079D01*
X19020182Y-10364079D02*
X19029705Y-10402174D01*
X19029705Y-10402174D02*
X19029705Y-10449793D01*
X19029705Y-10449793D02*
X19020182Y-10487889D01*
X19020182Y-10487889D02*
X19010658Y-10506936D01*
X19010658Y-10506936D02*
X19001134Y-10516460D01*
X19001134Y-10516460D02*
X18982086Y-10525984D01*
X18982086Y-10525984D02*
X18963039Y-10525984D01*
X18963039Y-10525984D02*
X18943991Y-10516460D01*
X18943991Y-10516460D02*
X18934467Y-10506936D01*
X18934467Y-10506936D02*
X18924944Y-10487889D01*
X18924944Y-10487889D02*
X18915420Y-10449793D01*
X18915420Y-10449793D02*
X18915420Y-10402174D01*
X18915420Y-10402174D02*
X18924944Y-10364079D01*
X18924944Y-10364079D02*
X18934467Y-10345031D01*
X18934467Y-10345031D02*
X18943991Y-10335508D01*
X18943991Y-10335508D02*
X18963039Y-10325984D01*
X19115420Y-10525984D02*
X19115420Y-10392650D01*
X19115420Y-10411698D02*
X19124944Y-10402174D01*
X19124944Y-10402174D02*
X19143991Y-10392650D01*
X19143991Y-10392650D02*
X19172563Y-10392650D01*
X19172563Y-10392650D02*
X19191610Y-10402174D01*
X19191610Y-10402174D02*
X19201134Y-10421222D01*
X19201134Y-10421222D02*
X19201134Y-10525984D01*
X19201134Y-10421222D02*
X19210658Y-10402174D01*
X19210658Y-10402174D02*
X19229705Y-10392650D01*
X19229705Y-10392650D02*
X19258277Y-10392650D01*
X19258277Y-10392650D02*
X19277325Y-10402174D01*
X19277325Y-10402174D02*
X19286848Y-10421222D01*
X19286848Y-10421222D02*
X19286848Y-10525984D01*
X19382086Y-10525984D02*
X19382086Y-10392650D01*
X19382086Y-10411698D02*
X19391610Y-10402174D01*
X19391610Y-10402174D02*
X19410658Y-10392650D01*
X19410658Y-10392650D02*
X19439229Y-10392650D01*
X19439229Y-10392650D02*
X19458277Y-10402174D01*
X19458277Y-10402174D02*
X19467801Y-10421222D01*
X19467801Y-10421222D02*
X19467801Y-10525984D01*
X19467801Y-10421222D02*
X19477325Y-10402174D01*
X19477325Y-10402174D02*
X19496372Y-10392650D01*
X19496372Y-10392650D02*
X19524944Y-10392650D01*
X19524944Y-10392650D02*
X19543991Y-10402174D01*
X19543991Y-10402174D02*
X19553515Y-10421222D01*
X19553515Y-10421222D02*
X19553515Y-10525984D01*
X19943991Y-10316460D02*
X19772563Y-10573603D01*
X20201134Y-10325984D02*
X20220182Y-10325984D01*
X20220182Y-10325984D02*
X20239229Y-10335508D01*
X20239229Y-10335508D02*
X20248753Y-10345031D01*
X20248753Y-10345031D02*
X20258277Y-10364079D01*
X20258277Y-10364079D02*
X20267801Y-10402174D01*
X20267801Y-10402174D02*
X20267801Y-10449793D01*
X20267801Y-10449793D02*
X20258277Y-10487889D01*
X20258277Y-10487889D02*
X20248753Y-10506936D01*
X20248753Y-10506936D02*
X20239229Y-10516460D01*
X20239229Y-10516460D02*
X20220182Y-10525984D01*
X20220182Y-10525984D02*
X20201134Y-10525984D01*
X20201134Y-10525984D02*
X20182087Y-10516460D01*
X20182087Y-10516460D02*
X20172563Y-10506936D01*
X20172563Y-10506936D02*
X20163039Y-10487889D01*
X20163039Y-10487889D02*
X20153515Y-10449793D01*
X20153515Y-10449793D02*
X20153515Y-10402174D01*
X20153515Y-10402174D02*
X20163039Y-10364079D01*
X20163039Y-10364079D02*
X20172563Y-10345031D01*
X20172563Y-10345031D02*
X20182087Y-10335508D01*
X20182087Y-10335508D02*
X20201134Y-10325984D01*
X20353515Y-10506936D02*
X20363039Y-10516460D01*
X20363039Y-10516460D02*
X20353515Y-10525984D01*
X20353515Y-10525984D02*
X20343991Y-10516460D01*
X20343991Y-10516460D02*
X20353515Y-10506936D01*
X20353515Y-10506936D02*
X20353515Y-10525984D01*
X20486848Y-10325984D02*
X20505896Y-10325984D01*
X20505896Y-10325984D02*
X20524944Y-10335508D01*
X20524944Y-10335508D02*
X20534468Y-10345031D01*
X20534468Y-10345031D02*
X20543991Y-10364079D01*
X20543991Y-10364079D02*
X20553515Y-10402174D01*
X20553515Y-10402174D02*
X20553515Y-10449793D01*
X20553515Y-10449793D02*
X20543991Y-10487889D01*
X20543991Y-10487889D02*
X20534468Y-10506936D01*
X20534468Y-10506936D02*
X20524944Y-10516460D01*
X20524944Y-10516460D02*
X20505896Y-10525984D01*
X20505896Y-10525984D02*
X20486848Y-10525984D01*
X20486848Y-10525984D02*
X20467801Y-10516460D01*
X20467801Y-10516460D02*
X20458277Y-10506936D01*
X20458277Y-10506936D02*
X20448753Y-10487889D01*
X20448753Y-10487889D02*
X20439229Y-10449793D01*
X20439229Y-10449793D02*
X20439229Y-10402174D01*
X20439229Y-10402174D02*
X20448753Y-10364079D01*
X20448753Y-10364079D02*
X20458277Y-10345031D01*
X20458277Y-10345031D02*
X20467801Y-10335508D01*
X20467801Y-10335508D02*
X20486848Y-10325984D01*
X20620182Y-10325984D02*
X20743991Y-10325984D01*
X20743991Y-10325984D02*
X20677325Y-10402174D01*
X20677325Y-10402174D02*
X20705896Y-10402174D01*
X20705896Y-10402174D02*
X20724944Y-10411698D01*
X20724944Y-10411698D02*
X20734468Y-10421222D01*
X20734468Y-10421222D02*
X20743991Y-10440270D01*
X20743991Y-10440270D02*
X20743991Y-10487889D01*
X20743991Y-10487889D02*
X20734468Y-10506936D01*
X20734468Y-10506936D02*
X20724944Y-10516460D01*
X20724944Y-10516460D02*
X20705896Y-10525984D01*
X20705896Y-10525984D02*
X20648753Y-10525984D01*
X20648753Y-10525984D02*
X20629706Y-10516460D01*
X20629706Y-10516460D02*
X20620182Y-10506936D01*
X20934468Y-10525984D02*
X20820182Y-10525984D01*
X20877325Y-10525984D02*
X20877325Y-10325984D01*
X20877325Y-10325984D02*
X20858277Y-10354555D01*
X20858277Y-10354555D02*
X20839229Y-10373603D01*
X20839229Y-10373603D02*
X20820182Y-10383127D01*
X21115420Y-10325984D02*
X21020182Y-10325984D01*
X21020182Y-10325984D02*
X21010658Y-10421222D01*
X21010658Y-10421222D02*
X21020182Y-10411698D01*
X21020182Y-10411698D02*
X21039229Y-10402174D01*
X21039229Y-10402174D02*
X21086849Y-10402174D01*
X21086849Y-10402174D02*
X21105896Y-10411698D01*
X21105896Y-10411698D02*
X21115420Y-10421222D01*
X21115420Y-10421222D02*
X21124944Y-10440270D01*
X21124944Y-10440270D02*
X21124944Y-10487889D01*
X21124944Y-10487889D02*
X21115420Y-10506936D01*
X21115420Y-10506936D02*
X21105896Y-10516460D01*
X21105896Y-10516460D02*
X21086849Y-10525984D01*
X21086849Y-10525984D02*
X21039229Y-10525984D01*
X21039229Y-10525984D02*
X21020182Y-10516460D01*
X21020182Y-10516460D02*
X21010658Y-10506936D01*
X21201134Y-10325984D02*
X21201134Y-10364079D01*
X21277325Y-10325984D02*
X21277325Y-10364079D01*
X21572563Y-10602174D02*
X21563039Y-10592650D01*
X21563039Y-10592650D02*
X21543991Y-10564079D01*
X21543991Y-10564079D02*
X21534468Y-10545031D01*
X21534468Y-10545031D02*
X21524944Y-10516460D01*
X21524944Y-10516460D02*
X21515420Y-10468841D01*
X21515420Y-10468841D02*
X21515420Y-10430746D01*
X21515420Y-10430746D02*
X21524944Y-10383127D01*
X21524944Y-10383127D02*
X21534468Y-10354555D01*
X21534468Y-10354555D02*
X21543991Y-10335508D01*
X21543991Y-10335508D02*
X21563039Y-10306936D01*
X21563039Y-10306936D02*
X21572563Y-10297412D01*
X21753515Y-10525984D02*
X21639230Y-10525984D01*
X21696372Y-10525984D02*
X21696372Y-10325984D01*
X21696372Y-10325984D02*
X21677325Y-10354555D01*
X21677325Y-10354555D02*
X21658277Y-10373603D01*
X21658277Y-10373603D02*
X21639230Y-10383127D01*
X21877325Y-10325984D02*
X21896372Y-10325984D01*
X21896372Y-10325984D02*
X21915420Y-10335508D01*
X21915420Y-10335508D02*
X21924944Y-10345031D01*
X21924944Y-10345031D02*
X21934468Y-10364079D01*
X21934468Y-10364079D02*
X21943991Y-10402174D01*
X21943991Y-10402174D02*
X21943991Y-10449793D01*
X21943991Y-10449793D02*
X21934468Y-10487889D01*
X21934468Y-10487889D02*
X21924944Y-10506936D01*
X21924944Y-10506936D02*
X21915420Y-10516460D01*
X21915420Y-10516460D02*
X21896372Y-10525984D01*
X21896372Y-10525984D02*
X21877325Y-10525984D01*
X21877325Y-10525984D02*
X21858277Y-10516460D01*
X21858277Y-10516460D02*
X21848753Y-10506936D01*
X21848753Y-10506936D02*
X21839230Y-10487889D01*
X21839230Y-10487889D02*
X21829706Y-10449793D01*
X21829706Y-10449793D02*
X21829706Y-10402174D01*
X21829706Y-10402174D02*
X21839230Y-10364079D01*
X21839230Y-10364079D02*
X21848753Y-10345031D01*
X21848753Y-10345031D02*
X21858277Y-10335508D01*
X21858277Y-10335508D02*
X21877325Y-10325984D01*
X22182087Y-10525984D02*
X22182087Y-10325984D01*
X22267801Y-10525984D02*
X22267801Y-10421222D01*
X22267801Y-10421222D02*
X22258277Y-10402174D01*
X22258277Y-10402174D02*
X22239230Y-10392650D01*
X22239230Y-10392650D02*
X22210658Y-10392650D01*
X22210658Y-10392650D02*
X22191611Y-10402174D01*
X22191611Y-10402174D02*
X22182087Y-10411698D01*
X22391610Y-10525984D02*
X22372563Y-10516460D01*
X22372563Y-10516460D02*
X22363039Y-10506936D01*
X22363039Y-10506936D02*
X22353515Y-10487889D01*
X22353515Y-10487889D02*
X22353515Y-10430746D01*
X22353515Y-10430746D02*
X22363039Y-10411698D01*
X22363039Y-10411698D02*
X22372563Y-10402174D01*
X22372563Y-10402174D02*
X22391610Y-10392650D01*
X22391610Y-10392650D02*
X22420182Y-10392650D01*
X22420182Y-10392650D02*
X22439230Y-10402174D01*
X22439230Y-10402174D02*
X22448753Y-10411698D01*
X22448753Y-10411698D02*
X22458277Y-10430746D01*
X22458277Y-10430746D02*
X22458277Y-10487889D01*
X22458277Y-10487889D02*
X22448753Y-10506936D01*
X22448753Y-10506936D02*
X22439230Y-10516460D01*
X22439230Y-10516460D02*
X22420182Y-10525984D01*
X22420182Y-10525984D02*
X22391610Y-10525984D01*
X22572563Y-10525984D02*
X22553515Y-10516460D01*
X22553515Y-10516460D02*
X22543991Y-10497412D01*
X22543991Y-10497412D02*
X22543991Y-10325984D01*
X22724944Y-10516460D02*
X22705896Y-10525984D01*
X22705896Y-10525984D02*
X22667801Y-10525984D01*
X22667801Y-10525984D02*
X22648753Y-10516460D01*
X22648753Y-10516460D02*
X22639230Y-10497412D01*
X22639230Y-10497412D02*
X22639230Y-10421222D01*
X22639230Y-10421222D02*
X22648753Y-10402174D01*
X22648753Y-10402174D02*
X22667801Y-10392650D01*
X22667801Y-10392650D02*
X22705896Y-10392650D01*
X22705896Y-10392650D02*
X22724944Y-10402174D01*
X22724944Y-10402174D02*
X22734468Y-10421222D01*
X22734468Y-10421222D02*
X22734468Y-10440270D01*
X22734468Y-10440270D02*
X22639230Y-10459317D01*
X22810658Y-10516460D02*
X22829706Y-10525984D01*
X22829706Y-10525984D02*
X22867801Y-10525984D01*
X22867801Y-10525984D02*
X22886849Y-10516460D01*
X22886849Y-10516460D02*
X22896372Y-10497412D01*
X22896372Y-10497412D02*
X22896372Y-10487889D01*
X22896372Y-10487889D02*
X22886849Y-10468841D01*
X22886849Y-10468841D02*
X22867801Y-10459317D01*
X22867801Y-10459317D02*
X22839230Y-10459317D01*
X22839230Y-10459317D02*
X22820182Y-10449793D01*
X22820182Y-10449793D02*
X22810658Y-10430746D01*
X22810658Y-10430746D02*
X22810658Y-10421222D01*
X22810658Y-10421222D02*
X22820182Y-10402174D01*
X22820182Y-10402174D02*
X22839230Y-10392650D01*
X22839230Y-10392650D02*
X22867801Y-10392650D01*
X22867801Y-10392650D02*
X22886849Y-10402174D01*
X22963039Y-10602174D02*
X22972563Y-10592650D01*
X22972563Y-10592650D02*
X22991611Y-10564079D01*
X22991611Y-10564079D02*
X23001134Y-10545031D01*
X23001134Y-10545031D02*
X23010658Y-10516460D01*
X23010658Y-10516460D02*
X23020182Y-10468841D01*
X23020182Y-10468841D02*
X23020182Y-10430746D01*
X23020182Y-10430746D02*
X23010658Y-10383127D01*
X23010658Y-10383127D02*
X23001134Y-10354555D01*
X23001134Y-10354555D02*
X22991611Y-10335508D01*
X22991611Y-10335508D02*
X22972563Y-10306936D01*
X22972563Y-10306936D02*
X22963039Y-10297412D01*
D12*
X17947500Y-10748500D02*
X17997500Y-10698500D01*
X17947500Y-10648500D01*
X17897500Y-10698500D01*
X17947500Y-10748500D01*
D11*
X18363039Y-10789984D02*
X18248753Y-10789984D01*
X18305896Y-10789984D02*
X18305896Y-10589984D01*
X18305896Y-10589984D02*
X18286848Y-10618555D01*
X18286848Y-10618555D02*
X18267801Y-10637603D01*
X18267801Y-10637603D02*
X18248753Y-10647127D01*
X18448753Y-10770936D02*
X18458277Y-10780460D01*
X18458277Y-10780460D02*
X18448753Y-10789984D01*
X18448753Y-10789984D02*
X18439229Y-10780460D01*
X18439229Y-10780460D02*
X18448753Y-10770936D01*
X18448753Y-10770936D02*
X18448753Y-10789984D01*
X18582086Y-10589984D02*
X18601134Y-10589984D01*
X18601134Y-10589984D02*
X18620182Y-10599508D01*
X18620182Y-10599508D02*
X18629705Y-10609031D01*
X18629705Y-10609031D02*
X18639229Y-10628079D01*
X18639229Y-10628079D02*
X18648753Y-10666174D01*
X18648753Y-10666174D02*
X18648753Y-10713793D01*
X18648753Y-10713793D02*
X18639229Y-10751889D01*
X18639229Y-10751889D02*
X18629705Y-10770936D01*
X18629705Y-10770936D02*
X18620182Y-10780460D01*
X18620182Y-10780460D02*
X18601134Y-10789984D01*
X18601134Y-10789984D02*
X18582086Y-10789984D01*
X18582086Y-10789984D02*
X18563039Y-10780460D01*
X18563039Y-10780460D02*
X18553515Y-10770936D01*
X18553515Y-10770936D02*
X18543991Y-10751889D01*
X18543991Y-10751889D02*
X18534467Y-10713793D01*
X18534467Y-10713793D02*
X18534467Y-10666174D01*
X18534467Y-10666174D02*
X18543991Y-10628079D01*
X18543991Y-10628079D02*
X18553515Y-10609031D01*
X18553515Y-10609031D02*
X18563039Y-10599508D01*
X18563039Y-10599508D02*
X18582086Y-10589984D01*
X18772563Y-10589984D02*
X18791610Y-10589984D01*
X18791610Y-10589984D02*
X18810658Y-10599508D01*
X18810658Y-10599508D02*
X18820182Y-10609031D01*
X18820182Y-10609031D02*
X18829705Y-10628079D01*
X18829705Y-10628079D02*
X18839229Y-10666174D01*
X18839229Y-10666174D02*
X18839229Y-10713793D01*
X18839229Y-10713793D02*
X18829705Y-10751889D01*
X18829705Y-10751889D02*
X18820182Y-10770936D01*
X18820182Y-10770936D02*
X18810658Y-10780460D01*
X18810658Y-10780460D02*
X18791610Y-10789984D01*
X18791610Y-10789984D02*
X18772563Y-10789984D01*
X18772563Y-10789984D02*
X18753515Y-10780460D01*
X18753515Y-10780460D02*
X18743991Y-10770936D01*
X18743991Y-10770936D02*
X18734467Y-10751889D01*
X18734467Y-10751889D02*
X18724944Y-10713793D01*
X18724944Y-10713793D02*
X18724944Y-10666174D01*
X18724944Y-10666174D02*
X18734467Y-10628079D01*
X18734467Y-10628079D02*
X18743991Y-10609031D01*
X18743991Y-10609031D02*
X18753515Y-10599508D01*
X18753515Y-10599508D02*
X18772563Y-10589984D01*
X18963039Y-10589984D02*
X18982086Y-10589984D01*
X18982086Y-10589984D02*
X19001134Y-10599508D01*
X19001134Y-10599508D02*
X19010658Y-10609031D01*
X19010658Y-10609031D02*
X19020182Y-10628079D01*
X19020182Y-10628079D02*
X19029705Y-10666174D01*
X19029705Y-10666174D02*
X19029705Y-10713793D01*
X19029705Y-10713793D02*
X19020182Y-10751889D01*
X19020182Y-10751889D02*
X19010658Y-10770936D01*
X19010658Y-10770936D02*
X19001134Y-10780460D01*
X19001134Y-10780460D02*
X18982086Y-10789984D01*
X18982086Y-10789984D02*
X18963039Y-10789984D01*
X18963039Y-10789984D02*
X18943991Y-10780460D01*
X18943991Y-10780460D02*
X18934467Y-10770936D01*
X18934467Y-10770936D02*
X18924944Y-10751889D01*
X18924944Y-10751889D02*
X18915420Y-10713793D01*
X18915420Y-10713793D02*
X18915420Y-10666174D01*
X18915420Y-10666174D02*
X18924944Y-10628079D01*
X18924944Y-10628079D02*
X18934467Y-10609031D01*
X18934467Y-10609031D02*
X18943991Y-10599508D01*
X18943991Y-10599508D02*
X18963039Y-10589984D01*
X19115420Y-10789984D02*
X19115420Y-10656650D01*
X19115420Y-10675698D02*
X19124944Y-10666174D01*
X19124944Y-10666174D02*
X19143991Y-10656650D01*
X19143991Y-10656650D02*
X19172563Y-10656650D01*
X19172563Y-10656650D02*
X19191610Y-10666174D01*
X19191610Y-10666174D02*
X19201134Y-10685222D01*
X19201134Y-10685222D02*
X19201134Y-10789984D01*
X19201134Y-10685222D02*
X19210658Y-10666174D01*
X19210658Y-10666174D02*
X19229705Y-10656650D01*
X19229705Y-10656650D02*
X19258277Y-10656650D01*
X19258277Y-10656650D02*
X19277325Y-10666174D01*
X19277325Y-10666174D02*
X19286848Y-10685222D01*
X19286848Y-10685222D02*
X19286848Y-10789984D01*
X19382086Y-10789984D02*
X19382086Y-10656650D01*
X19382086Y-10675698D02*
X19391610Y-10666174D01*
X19391610Y-10666174D02*
X19410658Y-10656650D01*
X19410658Y-10656650D02*
X19439229Y-10656650D01*
X19439229Y-10656650D02*
X19458277Y-10666174D01*
X19458277Y-10666174D02*
X19467801Y-10685222D01*
X19467801Y-10685222D02*
X19467801Y-10789984D01*
X19467801Y-10685222D02*
X19477325Y-10666174D01*
X19477325Y-10666174D02*
X19496372Y-10656650D01*
X19496372Y-10656650D02*
X19524944Y-10656650D01*
X19524944Y-10656650D02*
X19543991Y-10666174D01*
X19543991Y-10666174D02*
X19553515Y-10685222D01*
X19553515Y-10685222D02*
X19553515Y-10789984D01*
X19943991Y-10580460D02*
X19772563Y-10837603D01*
X20201134Y-10589984D02*
X20220182Y-10589984D01*
X20220182Y-10589984D02*
X20239229Y-10599508D01*
X20239229Y-10599508D02*
X20248753Y-10609031D01*
X20248753Y-10609031D02*
X20258277Y-10628079D01*
X20258277Y-10628079D02*
X20267801Y-10666174D01*
X20267801Y-10666174D02*
X20267801Y-10713793D01*
X20267801Y-10713793D02*
X20258277Y-10751889D01*
X20258277Y-10751889D02*
X20248753Y-10770936D01*
X20248753Y-10770936D02*
X20239229Y-10780460D01*
X20239229Y-10780460D02*
X20220182Y-10789984D01*
X20220182Y-10789984D02*
X20201134Y-10789984D01*
X20201134Y-10789984D02*
X20182087Y-10780460D01*
X20182087Y-10780460D02*
X20172563Y-10770936D01*
X20172563Y-10770936D02*
X20163039Y-10751889D01*
X20163039Y-10751889D02*
X20153515Y-10713793D01*
X20153515Y-10713793D02*
X20153515Y-10666174D01*
X20153515Y-10666174D02*
X20163039Y-10628079D01*
X20163039Y-10628079D02*
X20172563Y-10609031D01*
X20172563Y-10609031D02*
X20182087Y-10599508D01*
X20182087Y-10599508D02*
X20201134Y-10589984D01*
X20353515Y-10770936D02*
X20363039Y-10780460D01*
X20363039Y-10780460D02*
X20353515Y-10789984D01*
X20353515Y-10789984D02*
X20343991Y-10780460D01*
X20343991Y-10780460D02*
X20353515Y-10770936D01*
X20353515Y-10770936D02*
X20353515Y-10789984D01*
X20486848Y-10589984D02*
X20505896Y-10589984D01*
X20505896Y-10589984D02*
X20524944Y-10599508D01*
X20524944Y-10599508D02*
X20534468Y-10609031D01*
X20534468Y-10609031D02*
X20543991Y-10628079D01*
X20543991Y-10628079D02*
X20553515Y-10666174D01*
X20553515Y-10666174D02*
X20553515Y-10713793D01*
X20553515Y-10713793D02*
X20543991Y-10751889D01*
X20543991Y-10751889D02*
X20534468Y-10770936D01*
X20534468Y-10770936D02*
X20524944Y-10780460D01*
X20524944Y-10780460D02*
X20505896Y-10789984D01*
X20505896Y-10789984D02*
X20486848Y-10789984D01*
X20486848Y-10789984D02*
X20467801Y-10780460D01*
X20467801Y-10780460D02*
X20458277Y-10770936D01*
X20458277Y-10770936D02*
X20448753Y-10751889D01*
X20448753Y-10751889D02*
X20439229Y-10713793D01*
X20439229Y-10713793D02*
X20439229Y-10666174D01*
X20439229Y-10666174D02*
X20448753Y-10628079D01*
X20448753Y-10628079D02*
X20458277Y-10609031D01*
X20458277Y-10609031D02*
X20467801Y-10599508D01*
X20467801Y-10599508D02*
X20486848Y-10589984D01*
X20620182Y-10589984D02*
X20743991Y-10589984D01*
X20743991Y-10589984D02*
X20677325Y-10666174D01*
X20677325Y-10666174D02*
X20705896Y-10666174D01*
X20705896Y-10666174D02*
X20724944Y-10675698D01*
X20724944Y-10675698D02*
X20734468Y-10685222D01*
X20734468Y-10685222D02*
X20743991Y-10704270D01*
X20743991Y-10704270D02*
X20743991Y-10751889D01*
X20743991Y-10751889D02*
X20734468Y-10770936D01*
X20734468Y-10770936D02*
X20724944Y-10780460D01*
X20724944Y-10780460D02*
X20705896Y-10789984D01*
X20705896Y-10789984D02*
X20648753Y-10789984D01*
X20648753Y-10789984D02*
X20629706Y-10780460D01*
X20629706Y-10780460D02*
X20620182Y-10770936D01*
X20839229Y-10789984D02*
X20877325Y-10789984D01*
X20877325Y-10789984D02*
X20896372Y-10780460D01*
X20896372Y-10780460D02*
X20905896Y-10770936D01*
X20905896Y-10770936D02*
X20924944Y-10742365D01*
X20924944Y-10742365D02*
X20934468Y-10704270D01*
X20934468Y-10704270D02*
X20934468Y-10628079D01*
X20934468Y-10628079D02*
X20924944Y-10609031D01*
X20924944Y-10609031D02*
X20915420Y-10599508D01*
X20915420Y-10599508D02*
X20896372Y-10589984D01*
X20896372Y-10589984D02*
X20858277Y-10589984D01*
X20858277Y-10589984D02*
X20839229Y-10599508D01*
X20839229Y-10599508D02*
X20829706Y-10609031D01*
X20829706Y-10609031D02*
X20820182Y-10628079D01*
X20820182Y-10628079D02*
X20820182Y-10675698D01*
X20820182Y-10675698D02*
X20829706Y-10694746D01*
X20829706Y-10694746D02*
X20839229Y-10704270D01*
X20839229Y-10704270D02*
X20858277Y-10713793D01*
X20858277Y-10713793D02*
X20896372Y-10713793D01*
X20896372Y-10713793D02*
X20915420Y-10704270D01*
X20915420Y-10704270D02*
X20924944Y-10694746D01*
X20924944Y-10694746D02*
X20934468Y-10675698D01*
X21105896Y-10656650D02*
X21105896Y-10789984D01*
X21058277Y-10580460D02*
X21010658Y-10723317D01*
X21010658Y-10723317D02*
X21134468Y-10723317D01*
X21201134Y-10589984D02*
X21201134Y-10628079D01*
X21277325Y-10589984D02*
X21277325Y-10628079D01*
X21572563Y-10866174D02*
X21563039Y-10856650D01*
X21563039Y-10856650D02*
X21543991Y-10828079D01*
X21543991Y-10828079D02*
X21534468Y-10809031D01*
X21534468Y-10809031D02*
X21524944Y-10780460D01*
X21524944Y-10780460D02*
X21515420Y-10732841D01*
X21515420Y-10732841D02*
X21515420Y-10694746D01*
X21515420Y-10694746D02*
X21524944Y-10647127D01*
X21524944Y-10647127D02*
X21534468Y-10618555D01*
X21534468Y-10618555D02*
X21543991Y-10599508D01*
X21543991Y-10599508D02*
X21563039Y-10570936D01*
X21563039Y-10570936D02*
X21572563Y-10561412D01*
X21753515Y-10789984D02*
X21639230Y-10789984D01*
X21696372Y-10789984D02*
X21696372Y-10589984D01*
X21696372Y-10589984D02*
X21677325Y-10618555D01*
X21677325Y-10618555D02*
X21658277Y-10637603D01*
X21658277Y-10637603D02*
X21639230Y-10647127D01*
X21924944Y-10656650D02*
X21924944Y-10789984D01*
X21877325Y-10580460D02*
X21829706Y-10723317D01*
X21829706Y-10723317D02*
X21953515Y-10723317D01*
X22182087Y-10789984D02*
X22182087Y-10589984D01*
X22267801Y-10789984D02*
X22267801Y-10685222D01*
X22267801Y-10685222D02*
X22258277Y-10666174D01*
X22258277Y-10666174D02*
X22239230Y-10656650D01*
X22239230Y-10656650D02*
X22210658Y-10656650D01*
X22210658Y-10656650D02*
X22191611Y-10666174D01*
X22191611Y-10666174D02*
X22182087Y-10675698D01*
X22391610Y-10789984D02*
X22372563Y-10780460D01*
X22372563Y-10780460D02*
X22363039Y-10770936D01*
X22363039Y-10770936D02*
X22353515Y-10751889D01*
X22353515Y-10751889D02*
X22353515Y-10694746D01*
X22353515Y-10694746D02*
X22363039Y-10675698D01*
X22363039Y-10675698D02*
X22372563Y-10666174D01*
X22372563Y-10666174D02*
X22391610Y-10656650D01*
X22391610Y-10656650D02*
X22420182Y-10656650D01*
X22420182Y-10656650D02*
X22439230Y-10666174D01*
X22439230Y-10666174D02*
X22448753Y-10675698D01*
X22448753Y-10675698D02*
X22458277Y-10694746D01*
X22458277Y-10694746D02*
X22458277Y-10751889D01*
X22458277Y-10751889D02*
X22448753Y-10770936D01*
X22448753Y-10770936D02*
X22439230Y-10780460D01*
X22439230Y-10780460D02*
X22420182Y-10789984D01*
X22420182Y-10789984D02*
X22391610Y-10789984D01*
X22572563Y-10789984D02*
X22553515Y-10780460D01*
X22553515Y-10780460D02*
X22543991Y-10761412D01*
X22543991Y-10761412D02*
X22543991Y-10589984D01*
X22724944Y-10780460D02*
X22705896Y-10789984D01*
X22705896Y-10789984D02*
X22667801Y-10789984D01*
X22667801Y-10789984D02*
X22648753Y-10780460D01*
X22648753Y-10780460D02*
X22639230Y-10761412D01*
X22639230Y-10761412D02*
X22639230Y-10685222D01*
X22639230Y-10685222D02*
X22648753Y-10666174D01*
X22648753Y-10666174D02*
X22667801Y-10656650D01*
X22667801Y-10656650D02*
X22705896Y-10656650D01*
X22705896Y-10656650D02*
X22724944Y-10666174D01*
X22724944Y-10666174D02*
X22734468Y-10685222D01*
X22734468Y-10685222D02*
X22734468Y-10704270D01*
X22734468Y-10704270D02*
X22639230Y-10723317D01*
X22810658Y-10780460D02*
X22829706Y-10789984D01*
X22829706Y-10789984D02*
X22867801Y-10789984D01*
X22867801Y-10789984D02*
X22886849Y-10780460D01*
X22886849Y-10780460D02*
X22896372Y-10761412D01*
X22896372Y-10761412D02*
X22896372Y-10751889D01*
X22896372Y-10751889D02*
X22886849Y-10732841D01*
X22886849Y-10732841D02*
X22867801Y-10723317D01*
X22867801Y-10723317D02*
X22839230Y-10723317D01*
X22839230Y-10723317D02*
X22820182Y-10713793D01*
X22820182Y-10713793D02*
X22810658Y-10694746D01*
X22810658Y-10694746D02*
X22810658Y-10685222D01*
X22810658Y-10685222D02*
X22820182Y-10666174D01*
X22820182Y-10666174D02*
X22839230Y-10656650D01*
X22839230Y-10656650D02*
X22867801Y-10656650D01*
X22867801Y-10656650D02*
X22886849Y-10666174D01*
X22963039Y-10866174D02*
X22972563Y-10856650D01*
X22972563Y-10856650D02*
X22991611Y-10828079D01*
X22991611Y-10828079D02*
X23001134Y-10809031D01*
X23001134Y-10809031D02*
X23010658Y-10780460D01*
X23010658Y-10780460D02*
X23020182Y-10732841D01*
X23020182Y-10732841D02*
X23020182Y-10694746D01*
X23020182Y-10694746D02*
X23010658Y-10647127D01*
X23010658Y-10647127D02*
X23001134Y-10618555D01*
X23001134Y-10618555D02*
X22991611Y-10599508D01*
X22991611Y-10599508D02*
X22972563Y-10570936D01*
X22972563Y-10570936D02*
X22963039Y-10561412D01*
D13*
X17867500Y-10897500D02*
X17997500Y-11027500D01*
X17997500Y-10897500D02*
X17867500Y-11027500D01*
X17997500Y-10962500D02*
G75*
G02*
X17867500Y-10962500I-65000J0D01*
G01*
X17867500Y-10962500D02*
G75*
G02*
X17997500Y-10962500I65000J0D01*
G01*
D11*
X18363039Y-11053984D02*
X18248753Y-11053984D01*
X18305896Y-11053984D02*
X18305896Y-10853984D01*
X18305896Y-10853984D02*
X18286848Y-10882555D01*
X18286848Y-10882555D02*
X18267801Y-10901603D01*
X18267801Y-10901603D02*
X18248753Y-10911127D01*
X18448753Y-11034936D02*
X18458277Y-11044460D01*
X18458277Y-11044460D02*
X18448753Y-11053984D01*
X18448753Y-11053984D02*
X18439229Y-11044460D01*
X18439229Y-11044460D02*
X18448753Y-11034936D01*
X18448753Y-11034936D02*
X18448753Y-11053984D01*
X18524944Y-10853984D02*
X18648753Y-10853984D01*
X18648753Y-10853984D02*
X18582086Y-10930174D01*
X18582086Y-10930174D02*
X18610658Y-10930174D01*
X18610658Y-10930174D02*
X18629705Y-10939698D01*
X18629705Y-10939698D02*
X18639229Y-10949222D01*
X18639229Y-10949222D02*
X18648753Y-10968270D01*
X18648753Y-10968270D02*
X18648753Y-11015889D01*
X18648753Y-11015889D02*
X18639229Y-11034936D01*
X18639229Y-11034936D02*
X18629705Y-11044460D01*
X18629705Y-11044460D02*
X18610658Y-11053984D01*
X18610658Y-11053984D02*
X18553515Y-11053984D01*
X18553515Y-11053984D02*
X18534467Y-11044460D01*
X18534467Y-11044460D02*
X18524944Y-11034936D01*
X18772563Y-10853984D02*
X18791610Y-10853984D01*
X18791610Y-10853984D02*
X18810658Y-10863508D01*
X18810658Y-10863508D02*
X18820182Y-10873031D01*
X18820182Y-10873031D02*
X18829705Y-10892079D01*
X18829705Y-10892079D02*
X18839229Y-10930174D01*
X18839229Y-10930174D02*
X18839229Y-10977793D01*
X18839229Y-10977793D02*
X18829705Y-11015889D01*
X18829705Y-11015889D02*
X18820182Y-11034936D01*
X18820182Y-11034936D02*
X18810658Y-11044460D01*
X18810658Y-11044460D02*
X18791610Y-11053984D01*
X18791610Y-11053984D02*
X18772563Y-11053984D01*
X18772563Y-11053984D02*
X18753515Y-11044460D01*
X18753515Y-11044460D02*
X18743991Y-11034936D01*
X18743991Y-11034936D02*
X18734467Y-11015889D01*
X18734467Y-11015889D02*
X18724944Y-10977793D01*
X18724944Y-10977793D02*
X18724944Y-10930174D01*
X18724944Y-10930174D02*
X18734467Y-10892079D01*
X18734467Y-10892079D02*
X18743991Y-10873031D01*
X18743991Y-10873031D02*
X18753515Y-10863508D01*
X18753515Y-10863508D02*
X18772563Y-10853984D01*
X18963039Y-10853984D02*
X18982086Y-10853984D01*
X18982086Y-10853984D02*
X19001134Y-10863508D01*
X19001134Y-10863508D02*
X19010658Y-10873031D01*
X19010658Y-10873031D02*
X19020182Y-10892079D01*
X19020182Y-10892079D02*
X19029705Y-10930174D01*
X19029705Y-10930174D02*
X19029705Y-10977793D01*
X19029705Y-10977793D02*
X19020182Y-11015889D01*
X19020182Y-11015889D02*
X19010658Y-11034936D01*
X19010658Y-11034936D02*
X19001134Y-11044460D01*
X19001134Y-11044460D02*
X18982086Y-11053984D01*
X18982086Y-11053984D02*
X18963039Y-11053984D01*
X18963039Y-11053984D02*
X18943991Y-11044460D01*
X18943991Y-11044460D02*
X18934467Y-11034936D01*
X18934467Y-11034936D02*
X18924944Y-11015889D01*
X18924944Y-11015889D02*
X18915420Y-10977793D01*
X18915420Y-10977793D02*
X18915420Y-10930174D01*
X18915420Y-10930174D02*
X18924944Y-10892079D01*
X18924944Y-10892079D02*
X18934467Y-10873031D01*
X18934467Y-10873031D02*
X18943991Y-10863508D01*
X18943991Y-10863508D02*
X18963039Y-10853984D01*
X19115420Y-11053984D02*
X19115420Y-10920650D01*
X19115420Y-10939698D02*
X19124944Y-10930174D01*
X19124944Y-10930174D02*
X19143991Y-10920650D01*
X19143991Y-10920650D02*
X19172563Y-10920650D01*
X19172563Y-10920650D02*
X19191610Y-10930174D01*
X19191610Y-10930174D02*
X19201134Y-10949222D01*
X19201134Y-10949222D02*
X19201134Y-11053984D01*
X19201134Y-10949222D02*
X19210658Y-10930174D01*
X19210658Y-10930174D02*
X19229705Y-10920650D01*
X19229705Y-10920650D02*
X19258277Y-10920650D01*
X19258277Y-10920650D02*
X19277325Y-10930174D01*
X19277325Y-10930174D02*
X19286848Y-10949222D01*
X19286848Y-10949222D02*
X19286848Y-11053984D01*
X19382086Y-11053984D02*
X19382086Y-10920650D01*
X19382086Y-10939698D02*
X19391610Y-10930174D01*
X19391610Y-10930174D02*
X19410658Y-10920650D01*
X19410658Y-10920650D02*
X19439229Y-10920650D01*
X19439229Y-10920650D02*
X19458277Y-10930174D01*
X19458277Y-10930174D02*
X19467801Y-10949222D01*
X19467801Y-10949222D02*
X19467801Y-11053984D01*
X19467801Y-10949222D02*
X19477325Y-10930174D01*
X19477325Y-10930174D02*
X19496372Y-10920650D01*
X19496372Y-10920650D02*
X19524944Y-10920650D01*
X19524944Y-10920650D02*
X19543991Y-10930174D01*
X19543991Y-10930174D02*
X19553515Y-10949222D01*
X19553515Y-10949222D02*
X19553515Y-11053984D01*
X19943991Y-10844460D02*
X19772563Y-11101603D01*
X20201134Y-10853984D02*
X20220182Y-10853984D01*
X20220182Y-10853984D02*
X20239229Y-10863508D01*
X20239229Y-10863508D02*
X20248753Y-10873031D01*
X20248753Y-10873031D02*
X20258277Y-10892079D01*
X20258277Y-10892079D02*
X20267801Y-10930174D01*
X20267801Y-10930174D02*
X20267801Y-10977793D01*
X20267801Y-10977793D02*
X20258277Y-11015889D01*
X20258277Y-11015889D02*
X20248753Y-11034936D01*
X20248753Y-11034936D02*
X20239229Y-11044460D01*
X20239229Y-11044460D02*
X20220182Y-11053984D01*
X20220182Y-11053984D02*
X20201134Y-11053984D01*
X20201134Y-11053984D02*
X20182087Y-11044460D01*
X20182087Y-11044460D02*
X20172563Y-11034936D01*
X20172563Y-11034936D02*
X20163039Y-11015889D01*
X20163039Y-11015889D02*
X20153515Y-10977793D01*
X20153515Y-10977793D02*
X20153515Y-10930174D01*
X20153515Y-10930174D02*
X20163039Y-10892079D01*
X20163039Y-10892079D02*
X20172563Y-10873031D01*
X20172563Y-10873031D02*
X20182087Y-10863508D01*
X20182087Y-10863508D02*
X20201134Y-10853984D01*
X20353515Y-11034936D02*
X20363039Y-11044460D01*
X20363039Y-11044460D02*
X20353515Y-11053984D01*
X20353515Y-11053984D02*
X20343991Y-11044460D01*
X20343991Y-11044460D02*
X20353515Y-11034936D01*
X20353515Y-11034936D02*
X20353515Y-11053984D01*
X20486848Y-10853984D02*
X20505896Y-10853984D01*
X20505896Y-10853984D02*
X20524944Y-10863508D01*
X20524944Y-10863508D02*
X20534468Y-10873031D01*
X20534468Y-10873031D02*
X20543991Y-10892079D01*
X20543991Y-10892079D02*
X20553515Y-10930174D01*
X20553515Y-10930174D02*
X20553515Y-10977793D01*
X20553515Y-10977793D02*
X20543991Y-11015889D01*
X20543991Y-11015889D02*
X20534468Y-11034936D01*
X20534468Y-11034936D02*
X20524944Y-11044460D01*
X20524944Y-11044460D02*
X20505896Y-11053984D01*
X20505896Y-11053984D02*
X20486848Y-11053984D01*
X20486848Y-11053984D02*
X20467801Y-11044460D01*
X20467801Y-11044460D02*
X20458277Y-11034936D01*
X20458277Y-11034936D02*
X20448753Y-11015889D01*
X20448753Y-11015889D02*
X20439229Y-10977793D01*
X20439229Y-10977793D02*
X20439229Y-10930174D01*
X20439229Y-10930174D02*
X20448753Y-10892079D01*
X20448753Y-10892079D02*
X20458277Y-10873031D01*
X20458277Y-10873031D02*
X20467801Y-10863508D01*
X20467801Y-10863508D02*
X20486848Y-10853984D01*
X20734468Y-10853984D02*
X20639229Y-10853984D01*
X20639229Y-10853984D02*
X20629706Y-10949222D01*
X20629706Y-10949222D02*
X20639229Y-10939698D01*
X20639229Y-10939698D02*
X20658277Y-10930174D01*
X20658277Y-10930174D02*
X20705896Y-10930174D01*
X20705896Y-10930174D02*
X20724944Y-10939698D01*
X20724944Y-10939698D02*
X20734468Y-10949222D01*
X20734468Y-10949222D02*
X20743991Y-10968270D01*
X20743991Y-10968270D02*
X20743991Y-11015889D01*
X20743991Y-11015889D02*
X20734468Y-11034936D01*
X20734468Y-11034936D02*
X20724944Y-11044460D01*
X20724944Y-11044460D02*
X20705896Y-11053984D01*
X20705896Y-11053984D02*
X20658277Y-11053984D01*
X20658277Y-11053984D02*
X20639229Y-11044460D01*
X20639229Y-11044460D02*
X20629706Y-11034936D01*
X20934468Y-11053984D02*
X20820182Y-11053984D01*
X20877325Y-11053984D02*
X20877325Y-10853984D01*
X20877325Y-10853984D02*
X20858277Y-10882555D01*
X20858277Y-10882555D02*
X20839229Y-10901603D01*
X20839229Y-10901603D02*
X20820182Y-10911127D01*
X21010658Y-10873031D02*
X21020182Y-10863508D01*
X21020182Y-10863508D02*
X21039229Y-10853984D01*
X21039229Y-10853984D02*
X21086849Y-10853984D01*
X21086849Y-10853984D02*
X21105896Y-10863508D01*
X21105896Y-10863508D02*
X21115420Y-10873031D01*
X21115420Y-10873031D02*
X21124944Y-10892079D01*
X21124944Y-10892079D02*
X21124944Y-10911127D01*
X21124944Y-10911127D02*
X21115420Y-10939698D01*
X21115420Y-10939698D02*
X21001134Y-11053984D01*
X21001134Y-11053984D02*
X21124944Y-11053984D01*
X21201134Y-10853984D02*
X21201134Y-10892079D01*
X21277325Y-10853984D02*
X21277325Y-10892079D01*
X21572563Y-11130174D02*
X21563039Y-11120650D01*
X21563039Y-11120650D02*
X21543991Y-11092079D01*
X21543991Y-11092079D02*
X21534468Y-11073031D01*
X21534468Y-11073031D02*
X21524944Y-11044460D01*
X21524944Y-11044460D02*
X21515420Y-10996841D01*
X21515420Y-10996841D02*
X21515420Y-10958746D01*
X21515420Y-10958746D02*
X21524944Y-10911127D01*
X21524944Y-10911127D02*
X21534468Y-10882555D01*
X21534468Y-10882555D02*
X21543991Y-10863508D01*
X21543991Y-10863508D02*
X21563039Y-10834936D01*
X21563039Y-10834936D02*
X21572563Y-10825412D01*
X21639230Y-10873031D02*
X21648753Y-10863508D01*
X21648753Y-10863508D02*
X21667801Y-10853984D01*
X21667801Y-10853984D02*
X21715420Y-10853984D01*
X21715420Y-10853984D02*
X21734468Y-10863508D01*
X21734468Y-10863508D02*
X21743991Y-10873031D01*
X21743991Y-10873031D02*
X21753515Y-10892079D01*
X21753515Y-10892079D02*
X21753515Y-10911127D01*
X21753515Y-10911127D02*
X21743991Y-10939698D01*
X21743991Y-10939698D02*
X21629706Y-11053984D01*
X21629706Y-11053984D02*
X21753515Y-11053984D01*
X21991611Y-11053984D02*
X21991611Y-10853984D01*
X22077325Y-11053984D02*
X22077325Y-10949222D01*
X22077325Y-10949222D02*
X22067801Y-10930174D01*
X22067801Y-10930174D02*
X22048753Y-10920650D01*
X22048753Y-10920650D02*
X22020182Y-10920650D01*
X22020182Y-10920650D02*
X22001134Y-10930174D01*
X22001134Y-10930174D02*
X21991611Y-10939698D01*
X22201134Y-11053984D02*
X22182087Y-11044460D01*
X22182087Y-11044460D02*
X22172563Y-11034936D01*
X22172563Y-11034936D02*
X22163039Y-11015889D01*
X22163039Y-11015889D02*
X22163039Y-10958746D01*
X22163039Y-10958746D02*
X22172563Y-10939698D01*
X22172563Y-10939698D02*
X22182087Y-10930174D01*
X22182087Y-10930174D02*
X22201134Y-10920650D01*
X22201134Y-10920650D02*
X22229706Y-10920650D01*
X22229706Y-10920650D02*
X22248753Y-10930174D01*
X22248753Y-10930174D02*
X22258277Y-10939698D01*
X22258277Y-10939698D02*
X22267801Y-10958746D01*
X22267801Y-10958746D02*
X22267801Y-11015889D01*
X22267801Y-11015889D02*
X22258277Y-11034936D01*
X22258277Y-11034936D02*
X22248753Y-11044460D01*
X22248753Y-11044460D02*
X22229706Y-11053984D01*
X22229706Y-11053984D02*
X22201134Y-11053984D01*
X22382087Y-11053984D02*
X22363039Y-11044460D01*
X22363039Y-11044460D02*
X22353515Y-11025412D01*
X22353515Y-11025412D02*
X22353515Y-10853984D01*
X22534468Y-11044460D02*
X22515420Y-11053984D01*
X22515420Y-11053984D02*
X22477325Y-11053984D01*
X22477325Y-11053984D02*
X22458277Y-11044460D01*
X22458277Y-11044460D02*
X22448753Y-11025412D01*
X22448753Y-11025412D02*
X22448753Y-10949222D01*
X22448753Y-10949222D02*
X22458277Y-10930174D01*
X22458277Y-10930174D02*
X22477325Y-10920650D01*
X22477325Y-10920650D02*
X22515420Y-10920650D01*
X22515420Y-10920650D02*
X22534468Y-10930174D01*
X22534468Y-10930174D02*
X22543991Y-10949222D01*
X22543991Y-10949222D02*
X22543991Y-10968270D01*
X22543991Y-10968270D02*
X22448753Y-10987317D01*
X22620182Y-11044460D02*
X22639230Y-11053984D01*
X22639230Y-11053984D02*
X22677325Y-11053984D01*
X22677325Y-11053984D02*
X22696372Y-11044460D01*
X22696372Y-11044460D02*
X22705896Y-11025412D01*
X22705896Y-11025412D02*
X22705896Y-11015889D01*
X22705896Y-11015889D02*
X22696372Y-10996841D01*
X22696372Y-10996841D02*
X22677325Y-10987317D01*
X22677325Y-10987317D02*
X22648753Y-10987317D01*
X22648753Y-10987317D02*
X22629706Y-10977793D01*
X22629706Y-10977793D02*
X22620182Y-10958746D01*
X22620182Y-10958746D02*
X22620182Y-10949222D01*
X22620182Y-10949222D02*
X22629706Y-10930174D01*
X22629706Y-10930174D02*
X22648753Y-10920650D01*
X22648753Y-10920650D02*
X22677325Y-10920650D01*
X22677325Y-10920650D02*
X22696372Y-10930174D01*
X22772563Y-11130174D02*
X22782087Y-11120650D01*
X22782087Y-11120650D02*
X22801134Y-11092079D01*
X22801134Y-11092079D02*
X22810658Y-11073031D01*
X22810658Y-11073031D02*
X22820182Y-11044460D01*
X22820182Y-11044460D02*
X22829706Y-10996841D01*
X22829706Y-10996841D02*
X22829706Y-10958746D01*
X22829706Y-10958746D02*
X22820182Y-10911127D01*
X22820182Y-10911127D02*
X22810658Y-10882555D01*
X22810658Y-10882555D02*
X22801134Y-10863508D01*
X22801134Y-10863508D02*
X22782087Y-10834936D01*
X22782087Y-10834936D02*
X22772563Y-10825412D01*
X17797500Y-11126500D02*
X17997500Y-11326500D01*
X17997500Y-11126500D02*
X17797500Y-11326500D01*
X17897500Y-11126500D02*
X17897500Y-11326500D01*
X17797500Y-11226500D02*
X17997500Y-11226500D01*
X18248753Y-11137031D02*
X18258277Y-11127508D01*
X18258277Y-11127508D02*
X18277324Y-11117984D01*
X18277324Y-11117984D02*
X18324944Y-11117984D01*
X18324944Y-11117984D02*
X18343991Y-11127508D01*
X18343991Y-11127508D02*
X18353515Y-11137031D01*
X18353515Y-11137031D02*
X18363039Y-11156079D01*
X18363039Y-11156079D02*
X18363039Y-11175127D01*
X18363039Y-11175127D02*
X18353515Y-11203698D01*
X18353515Y-11203698D02*
X18239229Y-11317984D01*
X18239229Y-11317984D02*
X18363039Y-11317984D01*
X18448753Y-11298936D02*
X18458277Y-11308460D01*
X18458277Y-11308460D02*
X18448753Y-11317984D01*
X18448753Y-11317984D02*
X18439229Y-11308460D01*
X18439229Y-11308460D02*
X18448753Y-11298936D01*
X18448753Y-11298936D02*
X18448753Y-11317984D01*
X18534467Y-11137031D02*
X18543991Y-11127508D01*
X18543991Y-11127508D02*
X18563039Y-11117984D01*
X18563039Y-11117984D02*
X18610658Y-11117984D01*
X18610658Y-11117984D02*
X18629705Y-11127508D01*
X18629705Y-11127508D02*
X18639229Y-11137031D01*
X18639229Y-11137031D02*
X18648753Y-11156079D01*
X18648753Y-11156079D02*
X18648753Y-11175127D01*
X18648753Y-11175127D02*
X18639229Y-11203698D01*
X18639229Y-11203698D02*
X18524944Y-11317984D01*
X18524944Y-11317984D02*
X18648753Y-11317984D01*
X18772563Y-11117984D02*
X18791610Y-11117984D01*
X18791610Y-11117984D02*
X18810658Y-11127508D01*
X18810658Y-11127508D02*
X18820182Y-11137031D01*
X18820182Y-11137031D02*
X18829705Y-11156079D01*
X18829705Y-11156079D02*
X18839229Y-11194174D01*
X18839229Y-11194174D02*
X18839229Y-11241793D01*
X18839229Y-11241793D02*
X18829705Y-11279888D01*
X18829705Y-11279888D02*
X18820182Y-11298936D01*
X18820182Y-11298936D02*
X18810658Y-11308460D01*
X18810658Y-11308460D02*
X18791610Y-11317984D01*
X18791610Y-11317984D02*
X18772563Y-11317984D01*
X18772563Y-11317984D02*
X18753515Y-11308460D01*
X18753515Y-11308460D02*
X18743991Y-11298936D01*
X18743991Y-11298936D02*
X18734467Y-11279888D01*
X18734467Y-11279888D02*
X18724944Y-11241793D01*
X18724944Y-11241793D02*
X18724944Y-11194174D01*
X18724944Y-11194174D02*
X18734467Y-11156079D01*
X18734467Y-11156079D02*
X18743991Y-11137031D01*
X18743991Y-11137031D02*
X18753515Y-11127508D01*
X18753515Y-11127508D02*
X18772563Y-11117984D01*
X18963039Y-11117984D02*
X18982086Y-11117984D01*
X18982086Y-11117984D02*
X19001134Y-11127508D01*
X19001134Y-11127508D02*
X19010658Y-11137031D01*
X19010658Y-11137031D02*
X19020182Y-11156079D01*
X19020182Y-11156079D02*
X19029705Y-11194174D01*
X19029705Y-11194174D02*
X19029705Y-11241793D01*
X19029705Y-11241793D02*
X19020182Y-11279888D01*
X19020182Y-11279888D02*
X19010658Y-11298936D01*
X19010658Y-11298936D02*
X19001134Y-11308460D01*
X19001134Y-11308460D02*
X18982086Y-11317984D01*
X18982086Y-11317984D02*
X18963039Y-11317984D01*
X18963039Y-11317984D02*
X18943991Y-11308460D01*
X18943991Y-11308460D02*
X18934467Y-11298936D01*
X18934467Y-11298936D02*
X18924944Y-11279888D01*
X18924944Y-11279888D02*
X18915420Y-11241793D01*
X18915420Y-11241793D02*
X18915420Y-11194174D01*
X18915420Y-11194174D02*
X18924944Y-11156079D01*
X18924944Y-11156079D02*
X18934467Y-11137031D01*
X18934467Y-11137031D02*
X18943991Y-11127508D01*
X18943991Y-11127508D02*
X18963039Y-11117984D01*
X19115420Y-11317984D02*
X19115420Y-11184650D01*
X19115420Y-11203698D02*
X19124944Y-11194174D01*
X19124944Y-11194174D02*
X19143991Y-11184650D01*
X19143991Y-11184650D02*
X19172563Y-11184650D01*
X19172563Y-11184650D02*
X19191610Y-11194174D01*
X19191610Y-11194174D02*
X19201134Y-11213222D01*
X19201134Y-11213222D02*
X19201134Y-11317984D01*
X19201134Y-11213222D02*
X19210658Y-11194174D01*
X19210658Y-11194174D02*
X19229705Y-11184650D01*
X19229705Y-11184650D02*
X19258277Y-11184650D01*
X19258277Y-11184650D02*
X19277325Y-11194174D01*
X19277325Y-11194174D02*
X19286848Y-11213222D01*
X19286848Y-11213222D02*
X19286848Y-11317984D01*
X19382086Y-11317984D02*
X19382086Y-11184650D01*
X19382086Y-11203698D02*
X19391610Y-11194174D01*
X19391610Y-11194174D02*
X19410658Y-11184650D01*
X19410658Y-11184650D02*
X19439229Y-11184650D01*
X19439229Y-11184650D02*
X19458277Y-11194174D01*
X19458277Y-11194174D02*
X19467801Y-11213222D01*
X19467801Y-11213222D02*
X19467801Y-11317984D01*
X19467801Y-11213222D02*
X19477325Y-11194174D01*
X19477325Y-11194174D02*
X19496372Y-11184650D01*
X19496372Y-11184650D02*
X19524944Y-11184650D01*
X19524944Y-11184650D02*
X19543991Y-11194174D01*
X19543991Y-11194174D02*
X19553515Y-11213222D01*
X19553515Y-11213222D02*
X19553515Y-11317984D01*
X19943991Y-11108460D02*
X19772563Y-11365603D01*
X20201134Y-11117984D02*
X20220182Y-11117984D01*
X20220182Y-11117984D02*
X20239229Y-11127508D01*
X20239229Y-11127508D02*
X20248753Y-11137031D01*
X20248753Y-11137031D02*
X20258277Y-11156079D01*
X20258277Y-11156079D02*
X20267801Y-11194174D01*
X20267801Y-11194174D02*
X20267801Y-11241793D01*
X20267801Y-11241793D02*
X20258277Y-11279888D01*
X20258277Y-11279888D02*
X20248753Y-11298936D01*
X20248753Y-11298936D02*
X20239229Y-11308460D01*
X20239229Y-11308460D02*
X20220182Y-11317984D01*
X20220182Y-11317984D02*
X20201134Y-11317984D01*
X20201134Y-11317984D02*
X20182087Y-11308460D01*
X20182087Y-11308460D02*
X20172563Y-11298936D01*
X20172563Y-11298936D02*
X20163039Y-11279888D01*
X20163039Y-11279888D02*
X20153515Y-11241793D01*
X20153515Y-11241793D02*
X20153515Y-11194174D01*
X20153515Y-11194174D02*
X20163039Y-11156079D01*
X20163039Y-11156079D02*
X20172563Y-11137031D01*
X20172563Y-11137031D02*
X20182087Y-11127508D01*
X20182087Y-11127508D02*
X20201134Y-11117984D01*
X20353515Y-11298936D02*
X20363039Y-11308460D01*
X20363039Y-11308460D02*
X20353515Y-11317984D01*
X20353515Y-11317984D02*
X20343991Y-11308460D01*
X20343991Y-11308460D02*
X20353515Y-11298936D01*
X20353515Y-11298936D02*
X20353515Y-11317984D01*
X20486848Y-11117984D02*
X20505896Y-11117984D01*
X20505896Y-11117984D02*
X20524944Y-11127508D01*
X20524944Y-11127508D02*
X20534468Y-11137031D01*
X20534468Y-11137031D02*
X20543991Y-11156079D01*
X20543991Y-11156079D02*
X20553515Y-11194174D01*
X20553515Y-11194174D02*
X20553515Y-11241793D01*
X20553515Y-11241793D02*
X20543991Y-11279888D01*
X20543991Y-11279888D02*
X20534468Y-11298936D01*
X20534468Y-11298936D02*
X20524944Y-11308460D01*
X20524944Y-11308460D02*
X20505896Y-11317984D01*
X20505896Y-11317984D02*
X20486848Y-11317984D01*
X20486848Y-11317984D02*
X20467801Y-11308460D01*
X20467801Y-11308460D02*
X20458277Y-11298936D01*
X20458277Y-11298936D02*
X20448753Y-11279888D01*
X20448753Y-11279888D02*
X20439229Y-11241793D01*
X20439229Y-11241793D02*
X20439229Y-11194174D01*
X20439229Y-11194174D02*
X20448753Y-11156079D01*
X20448753Y-11156079D02*
X20458277Y-11137031D01*
X20458277Y-11137031D02*
X20467801Y-11127508D01*
X20467801Y-11127508D02*
X20486848Y-11117984D01*
X20667801Y-11203698D02*
X20648753Y-11194174D01*
X20648753Y-11194174D02*
X20639229Y-11184650D01*
X20639229Y-11184650D02*
X20629706Y-11165603D01*
X20629706Y-11165603D02*
X20629706Y-11156079D01*
X20629706Y-11156079D02*
X20639229Y-11137031D01*
X20639229Y-11137031D02*
X20648753Y-11127508D01*
X20648753Y-11127508D02*
X20667801Y-11117984D01*
X20667801Y-11117984D02*
X20705896Y-11117984D01*
X20705896Y-11117984D02*
X20724944Y-11127508D01*
X20724944Y-11127508D02*
X20734468Y-11137031D01*
X20734468Y-11137031D02*
X20743991Y-11156079D01*
X20743991Y-11156079D02*
X20743991Y-11165603D01*
X20743991Y-11165603D02*
X20734468Y-11184650D01*
X20734468Y-11184650D02*
X20724944Y-11194174D01*
X20724944Y-11194174D02*
X20705896Y-11203698D01*
X20705896Y-11203698D02*
X20667801Y-11203698D01*
X20667801Y-11203698D02*
X20648753Y-11213222D01*
X20648753Y-11213222D02*
X20639229Y-11222746D01*
X20639229Y-11222746D02*
X20629706Y-11241793D01*
X20629706Y-11241793D02*
X20629706Y-11279888D01*
X20629706Y-11279888D02*
X20639229Y-11298936D01*
X20639229Y-11298936D02*
X20648753Y-11308460D01*
X20648753Y-11308460D02*
X20667801Y-11317984D01*
X20667801Y-11317984D02*
X20705896Y-11317984D01*
X20705896Y-11317984D02*
X20724944Y-11308460D01*
X20724944Y-11308460D02*
X20734468Y-11298936D01*
X20734468Y-11298936D02*
X20743991Y-11279888D01*
X20743991Y-11279888D02*
X20743991Y-11241793D01*
X20743991Y-11241793D02*
X20734468Y-11222746D01*
X20734468Y-11222746D02*
X20724944Y-11213222D01*
X20724944Y-11213222D02*
X20705896Y-11203698D01*
X20915420Y-11117984D02*
X20877325Y-11117984D01*
X20877325Y-11117984D02*
X20858277Y-11127508D01*
X20858277Y-11127508D02*
X20848753Y-11137031D01*
X20848753Y-11137031D02*
X20829706Y-11165603D01*
X20829706Y-11165603D02*
X20820182Y-11203698D01*
X20820182Y-11203698D02*
X20820182Y-11279888D01*
X20820182Y-11279888D02*
X20829706Y-11298936D01*
X20829706Y-11298936D02*
X20839229Y-11308460D01*
X20839229Y-11308460D02*
X20858277Y-11317984D01*
X20858277Y-11317984D02*
X20896372Y-11317984D01*
X20896372Y-11317984D02*
X20915420Y-11308460D01*
X20915420Y-11308460D02*
X20924944Y-11298936D01*
X20924944Y-11298936D02*
X20934468Y-11279888D01*
X20934468Y-11279888D02*
X20934468Y-11232269D01*
X20934468Y-11232269D02*
X20924944Y-11213222D01*
X20924944Y-11213222D02*
X20915420Y-11203698D01*
X20915420Y-11203698D02*
X20896372Y-11194174D01*
X20896372Y-11194174D02*
X20858277Y-11194174D01*
X20858277Y-11194174D02*
X20839229Y-11203698D01*
X20839229Y-11203698D02*
X20829706Y-11213222D01*
X20829706Y-11213222D02*
X20820182Y-11232269D01*
X21105896Y-11117984D02*
X21067801Y-11117984D01*
X21067801Y-11117984D02*
X21048753Y-11127508D01*
X21048753Y-11127508D02*
X21039229Y-11137031D01*
X21039229Y-11137031D02*
X21020182Y-11165603D01*
X21020182Y-11165603D02*
X21010658Y-11203698D01*
X21010658Y-11203698D02*
X21010658Y-11279888D01*
X21010658Y-11279888D02*
X21020182Y-11298936D01*
X21020182Y-11298936D02*
X21029706Y-11308460D01*
X21029706Y-11308460D02*
X21048753Y-11317984D01*
X21048753Y-11317984D02*
X21086849Y-11317984D01*
X21086849Y-11317984D02*
X21105896Y-11308460D01*
X21105896Y-11308460D02*
X21115420Y-11298936D01*
X21115420Y-11298936D02*
X21124944Y-11279888D01*
X21124944Y-11279888D02*
X21124944Y-11232269D01*
X21124944Y-11232269D02*
X21115420Y-11213222D01*
X21115420Y-11213222D02*
X21105896Y-11203698D01*
X21105896Y-11203698D02*
X21086849Y-11194174D01*
X21086849Y-11194174D02*
X21048753Y-11194174D01*
X21048753Y-11194174D02*
X21029706Y-11203698D01*
X21029706Y-11203698D02*
X21020182Y-11213222D01*
X21020182Y-11213222D02*
X21010658Y-11232269D01*
X21201134Y-11117984D02*
X21201134Y-11156079D01*
X21277325Y-11117984D02*
X21277325Y-11156079D01*
X21572563Y-11394174D02*
X21563039Y-11384650D01*
X21563039Y-11384650D02*
X21543991Y-11356079D01*
X21543991Y-11356079D02*
X21534468Y-11337031D01*
X21534468Y-11337031D02*
X21524944Y-11308460D01*
X21524944Y-11308460D02*
X21515420Y-11260841D01*
X21515420Y-11260841D02*
X21515420Y-11222746D01*
X21515420Y-11222746D02*
X21524944Y-11175127D01*
X21524944Y-11175127D02*
X21534468Y-11146555D01*
X21534468Y-11146555D02*
X21543991Y-11127508D01*
X21543991Y-11127508D02*
X21563039Y-11098936D01*
X21563039Y-11098936D02*
X21572563Y-11089412D01*
X21734468Y-11184650D02*
X21734468Y-11317984D01*
X21686849Y-11108460D02*
X21639230Y-11251317D01*
X21639230Y-11251317D02*
X21763039Y-11251317D01*
X21991611Y-11317984D02*
X21991611Y-11117984D01*
X22077325Y-11317984D02*
X22077325Y-11213222D01*
X22077325Y-11213222D02*
X22067801Y-11194174D01*
X22067801Y-11194174D02*
X22048753Y-11184650D01*
X22048753Y-11184650D02*
X22020182Y-11184650D01*
X22020182Y-11184650D02*
X22001134Y-11194174D01*
X22001134Y-11194174D02*
X21991611Y-11203698D01*
X22201134Y-11317984D02*
X22182087Y-11308460D01*
X22182087Y-11308460D02*
X22172563Y-11298936D01*
X22172563Y-11298936D02*
X22163039Y-11279888D01*
X22163039Y-11279888D02*
X22163039Y-11222746D01*
X22163039Y-11222746D02*
X22172563Y-11203698D01*
X22172563Y-11203698D02*
X22182087Y-11194174D01*
X22182087Y-11194174D02*
X22201134Y-11184650D01*
X22201134Y-11184650D02*
X22229706Y-11184650D01*
X22229706Y-11184650D02*
X22248753Y-11194174D01*
X22248753Y-11194174D02*
X22258277Y-11203698D01*
X22258277Y-11203698D02*
X22267801Y-11222746D01*
X22267801Y-11222746D02*
X22267801Y-11279888D01*
X22267801Y-11279888D02*
X22258277Y-11298936D01*
X22258277Y-11298936D02*
X22248753Y-11308460D01*
X22248753Y-11308460D02*
X22229706Y-11317984D01*
X22229706Y-11317984D02*
X22201134Y-11317984D01*
X22382087Y-11317984D02*
X22363039Y-11308460D01*
X22363039Y-11308460D02*
X22353515Y-11289412D01*
X22353515Y-11289412D02*
X22353515Y-11117984D01*
X22534468Y-11308460D02*
X22515420Y-11317984D01*
X22515420Y-11317984D02*
X22477325Y-11317984D01*
X22477325Y-11317984D02*
X22458277Y-11308460D01*
X22458277Y-11308460D02*
X22448753Y-11289412D01*
X22448753Y-11289412D02*
X22448753Y-11213222D01*
X22448753Y-11213222D02*
X22458277Y-11194174D01*
X22458277Y-11194174D02*
X22477325Y-11184650D01*
X22477325Y-11184650D02*
X22515420Y-11184650D01*
X22515420Y-11184650D02*
X22534468Y-11194174D01*
X22534468Y-11194174D02*
X22543991Y-11213222D01*
X22543991Y-11213222D02*
X22543991Y-11232269D01*
X22543991Y-11232269D02*
X22448753Y-11251317D01*
X22620182Y-11308460D02*
X22639230Y-11317984D01*
X22639230Y-11317984D02*
X22677325Y-11317984D01*
X22677325Y-11317984D02*
X22696372Y-11308460D01*
X22696372Y-11308460D02*
X22705896Y-11289412D01*
X22705896Y-11289412D02*
X22705896Y-11279888D01*
X22705896Y-11279888D02*
X22696372Y-11260841D01*
X22696372Y-11260841D02*
X22677325Y-11251317D01*
X22677325Y-11251317D02*
X22648753Y-11251317D01*
X22648753Y-11251317D02*
X22629706Y-11241793D01*
X22629706Y-11241793D02*
X22620182Y-11222746D01*
X22620182Y-11222746D02*
X22620182Y-11213222D01*
X22620182Y-11213222D02*
X22629706Y-11194174D01*
X22629706Y-11194174D02*
X22648753Y-11184650D01*
X22648753Y-11184650D02*
X22677325Y-11184650D01*
X22677325Y-11184650D02*
X22696372Y-11194174D01*
X22772563Y-11394174D02*
X22782087Y-11384650D01*
X22782087Y-11384650D02*
X22801134Y-11356079D01*
X22801134Y-11356079D02*
X22810658Y-11337031D01*
X22810658Y-11337031D02*
X22820182Y-11308460D01*
X22820182Y-11308460D02*
X22829706Y-11260841D01*
X22829706Y-11260841D02*
X22829706Y-11222746D01*
X22829706Y-11222746D02*
X22820182Y-11175127D01*
X22820182Y-11175127D02*
X22810658Y-11146555D01*
X22810658Y-11146555D02*
X22801134Y-11127508D01*
X22801134Y-11127508D02*
X22782087Y-11098936D01*
X22782087Y-11098936D02*
X22772563Y-11089412D01*
M02*
