%TF.GenerationSoftware,KiCad,Pcbnew,8.0.5*%
%TF.CreationDate,2024-09-29T15:37:39+05:30*%
%TF.ProjectId,waveform_generator,77617665-666f-4726-9d5f-67656e657261,rev?*%
%TF.SameCoordinates,Original*%
%TF.FileFunction,Paste,Top*%
%TF.FilePolarity,Positive*%
%FSLAX46Y46*%
G04 Gerber Fmt 4.6, Leading zero omitted, Abs format (unit mm)*
G04 Created by KiCad (PCBNEW 8.0.5) date 2024-09-29 15:37:39*
%MOMM*%
%LPD*%
G01*
G04 APERTURE LIST*
G04 Aperture macros list*
%AMRoundRect*
0 Rectangle with rounded corners*
0 $1 Rounding radius*
0 $2 $3 $4 $5 $6 $7 $8 $9 X,Y pos of 4 corners*
0 Add a 4 corners polygon primitive as box body*
4,1,4,$2,$3,$4,$5,$6,$7,$8,$9,$2,$3,0*
0 Add four circle primitives for the rounded corners*
1,1,$1+$1,$2,$3*
1,1,$1+$1,$4,$5*
1,1,$1+$1,$6,$7*
1,1,$1+$1,$8,$9*
0 Add four rect primitives between the rounded corners*
20,1,$1+$1,$2,$3,$4,$5,0*
20,1,$1+$1,$4,$5,$6,$7,0*
20,1,$1+$1,$6,$7,$8,$9,0*
20,1,$1+$1,$8,$9,$2,$3,0*%
G04 Aperture macros list end*
%ADD10RoundRect,0.225000X-0.250000X0.225000X-0.250000X-0.225000X0.250000X-0.225000X0.250000X0.225000X0*%
%ADD11RoundRect,0.218750X0.256250X-0.218750X0.256250X0.218750X-0.256250X0.218750X-0.256250X-0.218750X0*%
%ADD12RoundRect,0.200000X-0.200000X-0.275000X0.200000X-0.275000X0.200000X0.275000X-0.200000X0.275000X0*%
%ADD13RoundRect,0.225000X-0.225000X-0.250000X0.225000X-0.250000X0.225000X0.250000X-0.225000X0.250000X0*%
%ADD14R,1.380000X0.450000*%
%ADD15R,1.300000X1.650000*%
%ADD16R,1.550000X1.425000*%
%ADD17R,1.900000X1.800000*%
%ADD18R,1.900000X1.000000*%
%ADD19RoundRect,0.200000X0.200000X0.275000X-0.200000X0.275000X-0.200000X-0.275000X0.200000X-0.275000X0*%
%ADD20RoundRect,0.225000X-0.225000X-0.375000X0.225000X-0.375000X0.225000X0.375000X-0.225000X0.375000X0*%
%ADD21RoundRect,0.225000X-0.375000X0.225000X-0.375000X-0.225000X0.375000X-0.225000X0.375000X0.225000X0*%
%ADD22RoundRect,0.218750X-0.218750X-0.256250X0.218750X-0.256250X0.218750X0.256250X-0.218750X0.256250X0*%
G04 APERTURE END LIST*
D10*
%TO.C,C5*%
X211600000Y-58150000D03*
X211600000Y-59700000D03*
%TD*%
%TO.C,C2*%
X200900000Y-78500000D03*
X200900000Y-80050000D03*
%TD*%
%TO.C,C6*%
X210000000Y-58125000D03*
X210000000Y-59675000D03*
%TD*%
D11*
%TO.C,C8*%
X199600000Y-83175000D03*
X199600000Y-81600000D03*
%TD*%
D12*
%TO.C,R5*%
X206650000Y-56500000D03*
X208300000Y-56500000D03*
%TD*%
D13*
%TO.C,C3*%
X199850000Y-57900000D03*
X201400000Y-57900000D03*
%TD*%
D12*
%TO.C,R6*%
X216575000Y-62000000D03*
X218225000Y-62000000D03*
%TD*%
D10*
%TO.C,C1*%
X199200000Y-78500000D03*
X199200000Y-80050000D03*
%TD*%
%TO.C,C4*%
X205100000Y-58150000D03*
X205100000Y-59700000D03*
%TD*%
D14*
%TO.C,J5*%
X215640000Y-71650000D03*
X215640000Y-71000000D03*
X215640000Y-70350000D03*
X215640000Y-69700000D03*
X215640000Y-69050000D03*
D15*
X218300000Y-73725000D03*
D16*
X215725000Y-72837500D03*
D17*
X218300000Y-71500000D03*
D18*
X218300000Y-68800000D03*
D16*
X215725000Y-67862500D03*
D15*
X218300000Y-66975000D03*
%TD*%
D19*
%TO.C,R4*%
X208300000Y-58100000D03*
X206650000Y-58100000D03*
%TD*%
%TO.C,R2*%
X201500000Y-59700000D03*
X199850000Y-59700000D03*
%TD*%
D20*
%TO.C,D2*%
X202550000Y-79100000D03*
X205850000Y-79100000D03*
%TD*%
D21*
%TO.C,D1*%
X199600000Y-84750000D03*
X199600000Y-88050000D03*
%TD*%
D12*
%TO.C,R3*%
X206650000Y-59700000D03*
X208300000Y-59700000D03*
%TD*%
D22*
%TO.C,D3*%
X216612500Y-64000000D03*
X218187500Y-64000000D03*
%TD*%
D19*
%TO.C,R1*%
X197200000Y-67100000D03*
X195550000Y-67100000D03*
%TD*%
M02*
